<svg xmlns="http://www.w3.org/2000/svg" width="250" height="250" fill="none" viewBox="0 0 250 250">
    <g fill="#000">
        <path
            d="M72.9348 246.8v-9.66l-4.7459 8.085h-.8254l-4.7458-7.98v9.555h-1.7539v-13.23h1.5475l5.4681 9.345 5.3649-9.345h1.5475v13.23h-1.857ZM79.9504 245.435c-.9286-1.05-1.4444-2.415-1.4444-4.305v-7.56h1.8571v7.455c0 2.835 1.238 4.2 3.6109 4.2 1.2381 0 2.0635-.315 2.6825-1.05.619-.735.9285-1.785.9285-3.255v-7.455h1.7539v7.56c0 1.89-.5158 3.36-1.4444 4.305-.9285.945-2.2697 1.47-4.0236 1.47-1.7539 0-2.992-.42-3.9205-1.365ZM94.1879 246.485c-.9285-.315-1.6507-.735-2.1665-1.155l.7222-1.47c.5158.42 1.1348.84 1.857 1.155.8254.315 1.5476.42 2.373.42 1.0317 0 1.857-.21 2.3729-.525.5158-.42.8255-.84.8255-1.47 0-.42-.103-.84-.4128-1.155-.3095-.315-.619-.525-1.0317-.63-.4127-.105-1.0317-.315-1.8571-.525-.9285-.21-1.7539-.525-2.3729-.735-.6191-.21-1.1349-.63-1.5476-1.155-.4127-.525-.619-1.155-.619-1.995 0-.735.2063-1.365.5158-1.89.4127-.525.9286-1.05 1.6508-1.365.7222-.315 1.6507-.525 2.7856-.525.7222 0 1.5475.105 2.2697.315.7222.21 1.3412.525 1.9602.84l-.619 1.47c-.516-.315-1.1348-.63-1.7538-.84-.6191-.21-1.2381-.315-1.8571-.315-1.0317 0-1.8571.21-2.373.63-.5158.42-.8253.945-.8253 1.47 0 .42.1032.84.4127 1.155.3095.315.619.525 1.1348.63.4127.21 1.0318.315 1.754.525.9285.21 1.7539.525 2.3729.735.6188.21 1.1348.63 1.5478 1.05.412.42.619 1.155.619 1.995 0 .735-.207 1.365-.516 1.89-.31.525-.929 1.05-1.6508 1.365-.7222.315-1.6508.525-2.7856.525-.9286 0-1.8571-.21-2.7857-.42ZM104.815 233.57h1.857v13.23h-1.857v-13.23ZM112.862 246.065c-1.032-.63-1.857-1.365-2.476-2.415s-.929-2.205-.929-3.465c0-1.26.31-2.415.929-3.465.619-1.05 1.444-1.785 2.476-2.415 1.032-.63 2.27-.84 3.508-.84 1.031 0 1.96.21 2.785.525.826.315 1.548.84 2.167 1.575l-1.238 1.155c-.929-1.05-2.167-1.575-3.611-1.575-.929 0-1.857.21-2.579.63-.826.42-1.342 1.05-1.858 1.785-.412.735-.619 1.68-.619 2.625 0 .945.207 1.785.619 2.625.413.735 1.032 1.365 1.858 1.785.825.42 1.65.63 2.579.63 1.444 0 2.682-.525 3.611-1.575l1.238 1.155c-.619.63-1.341 1.155-2.167 1.575-.825.42-1.754.525-2.785.525-1.342 0-2.476-.315-3.508-.84ZM129.988 246.485c-.928-.315-1.65-.735-2.166-1.155l.722-1.47c.516.42 1.135.84 1.857 1.155.825.315 1.547.42 2.373.42 1.032 0 1.857-.21 2.373-.525.516-.42.825-.84.825-1.47 0-.42-.103-.84-.413-1.155-.309-.315-.619-.525-1.031-.63-.413-.105-1.032-.315-1.857-.525-.929-.21-1.754-.525-2.373-.735-.619-.21-1.135-.63-1.548-1.155-.412-.525-.619-1.155-.619-1.995 0-.735.207-1.365.516-1.89.413-.525.929-1.05 1.651-1.365.722-.315 1.65-.525 2.785-.525.723 0 1.548.105 2.27.315.722.21 1.341.525 1.96.84l-.619 1.47c-.516-.315-1.135-.63-1.754-.84-.619-.21-1.238-.315-1.857-.315-1.031 0-1.857.21-2.373.63-.515.42-.825.945-.825 1.47 0 .42.103.84.413 1.155.309.315.619.525 1.135.63.412.21 1.031.315 1.754.525.928.21 1.753.525 2.372.735.619.21 1.135.63 1.548 1.05.413.42.619 1.155.619 1.995 0 .735-.206 1.365-.516 1.89-.309.525-.928 1.05-1.651 1.365-.722.315-1.65.525-2.785.525-1.032 0-1.96-.21-2.786-.42ZM142.885 235.145h-4.437v-1.68h10.73v1.68h-4.436v11.55h-1.857v-11.55ZM153.408 246.065c-1.032-.63-1.857-1.365-2.476-2.415s-.929-2.205-.929-3.465c0-1.26.31-2.415.929-3.465.619-1.05 1.444-1.89 2.476-2.415 1.032-.525 2.27-.84 3.508-.84 1.341 0 2.476.315 3.508.84 1.031.63 1.857 1.365 2.476 2.415s.928 2.205.928 3.465c0 1.26-.309 2.415-.928 3.465-.619 1.05-1.445 1.785-2.476 2.415-1.032.63-2.27.84-3.508.84-1.341 0-2.476-.315-3.508-.84Zm6.087-1.47c.722-.42 1.341-1.05 1.754-1.785.413-.735.619-1.68.619-2.625 0-.945-.206-1.785-.619-2.625-.413-.84-1.032-1.365-1.754-1.785-.722-.42-1.651-.63-2.579-.63-.929 0-1.857.21-2.58.63-.825.42-1.341 1.05-1.857 1.785-.515.735-.619 1.68-.619 2.625 0 .945.207 1.785.619 2.625.413.84 1.032 1.365 1.857 1.785.826.42 1.651.63 2.58.63.928 0 1.857-.21 2.579-.63ZM175.383 246.8l-2.785-4.095h-4.024v3.99h-1.857v-13.23h5.055c1.651 0 2.992.42 4.024 1.26.929.84 1.444 1.995 1.444 3.36 0 1.05-.206 1.89-.722 2.625-.516.735-1.238 1.26-2.166 1.575l3.095 4.41h-2.064v.105Zm-1.031-6.51c.619-.525.928-1.26.928-2.205 0-.945-.309-1.68-.928-2.205-.619-.525-1.548-.735-2.683-.735h-3.198v5.985h3.198c1.135 0 2.064-.315 2.683-.84ZM189.621 245.12v1.68h-9.389v-13.23h9.183v1.68h-7.326v4.095h6.5v1.575h-6.5v4.305h7.532v-.105Z" />
    </g>
    <path fill="#000"
        d="M235.738 167c.826 0 1.754.21 2.58.63.825.42 1.444 1.05 1.96 1.89.412.84.722 1.68.722 2.625 0 .945-.206 1.785-.722 2.625-.413.84-1.135 1.47-1.857 1.995-.826.42-1.651.735-2.58.735-.928 0-1.753-.21-2.579-.735-.825-.42-1.444-1.155-1.96-1.995-.413-.84-.722-1.68-.722-2.625 0-.945.206-1.785.722-2.625.413-.84 1.135-1.47 1.96-1.89.826-.42 1.651-.63 2.476-.63Zm0 .84c-.722 0-1.444.21-2.166.525-.723.315-1.238.945-1.651 1.575-.413.735-.619 1.47-.619 2.205 0 .735.206 1.47.619 2.205.413.735.928 1.26 1.547 1.575.62.315 1.445.63 2.167.63.722 0 1.444-.21 2.167-.63.722-.42 1.238-.945 1.547-1.575.413-.735.516-1.365.516-2.205 0-.735-.206-1.47-.619-2.205-.413-.735-.928-1.26-1.651-1.575-.722-.315-1.135-.525-1.857-.525Zm-2.27 7.35v-5.67h1.858c.619 0 1.134 0 1.444.105.309.105.516.315.722.525.207.21.31.525.31.84 0 .42-.103.735-.413 1.05-.31.315-.722.525-1.135.525.206.105.31.21.516.315.206.21.516.63.825 1.155l.723 1.155h-1.135l-.516-.84c-.413-.735-.722-1.155-.929-1.365-.206-.105-.412-.21-.722-.21h-.516v2.415h-1.032Zm.929-3.255h1.135c.516 0 .825-.105 1.032-.21.206-.105.309-.315.309-.63 0-.21 0-.315-.103-.42-.103-.105-.206-.21-.413-.315-.206-.105-.412-.105-.928-.105h-1.032v1.68ZM210.977 197.345l-8.047-22.995h7.635l4.849 15.225h.103l5.055-15.225h6.913l-8.048 22.995 8.357 24.15h-7.635l-5.261-16.38h-.103l-5.468 16.38h-6.913l8.563-24.15ZM182.089 219.08c-1.857-2.1-2.888-4.935-2.888-8.715v-24.78c0-3.78.928-6.72 2.888-8.715 1.858-2.1 4.643-3.15 8.254-3.15 3.611 0 6.294 1.05 8.254 3.15 1.857 2.1 2.889 4.935 2.889 8.715v24.675c0 3.78-.929 6.72-2.889 8.715-1.857 2.1-4.643 3.15-8.254 3.15-3.611 0-6.396-1.05-8.254-3.045Zm11.968-8.295V185.06c0-3.15-1.238-4.62-3.817-4.62-2.476 0-3.817 1.575-3.817 4.62v25.725c0 3.15 1.238 4.62 3.817 4.62s3.817-1.575 3.817-4.62ZM153.718 174.35h10.936c3.714 0 6.499.84 8.253 2.625 1.754 1.785 2.58 4.515 2.58 8.19v1.89c0 2.415-.413 4.41-1.135 5.88-.722 1.575-1.961 2.625-3.508 3.255v.105c3.611 1.26 5.468 4.515 5.468 9.87v3.99c0 3.675-.929 6.405-2.786 8.295-1.857 1.89-4.642 2.835-8.253 2.835h-11.452V174.35h-.103Zm10.11 19.11c1.445 0 2.58-.42 3.302-1.155.722-.735 1.135-1.995 1.135-3.885v-2.625c0-1.68-.31-2.94-.929-3.675-.619-.735-1.547-1.155-2.786-1.155h-3.507v12.495h2.785Zm1.341 21.21c1.239 0 2.27-.315 2.889-1.05.619-.735.929-1.89.929-3.57v-4.095c0-2.205-.413-3.675-1.135-4.515-.722-.84-1.96-1.26-3.611-1.26h-3.198v14.49h4.126Z" />
    <path fill="#FF540A"
        d="M127.512 174.35h11.143c3.611 0 6.293.945 8.15 2.94 1.857 1.995 2.682 4.83 2.682 8.715v23.835c0 3.78-.928 6.72-2.682 8.715-1.857 1.995-4.539 2.94-8.15 2.94h-11.143V174.35Zm10.936 40.32c1.238 0 2.064-.315 2.786-1.05.619-.735.928-1.89.928-3.465V185.69c0-1.575-.309-2.835-.928-3.465-.619-.735-1.548-1.05-2.786-1.05h-3.714v33.705h3.714v-.21ZM99.9655 174.35h9.1825l7.118 28.245h.104V174.35h6.499v47.145h-7.428l-8.769-34.44h-.31v34.44h-6.4997V174.35h.1032ZM76.5457 219.08c-1.857-1.995-2.7856-4.935-2.7856-8.82v-35.91h7.3252v36.54c0 1.575.3095 2.835.9285 3.465.619.735 1.5476 1.05 2.7856 1.05 1.2381 0 2.0634-.315 2.7856-1.05.6191-.735.9286-1.89.9286-3.465v-36.54h7.0156v35.91c0 3.78-.9286 6.72-2.7856 8.82-1.8571 1.995-4.5396 3.045-8.0474 3.045-3.6109 0-6.2934-1.05-8.1505-3.045ZM50.5466 219.08c-1.8571-2.1-2.8888-4.935-2.8888-8.715v-24.78c0-3.78.9286-6.72 2.8888-8.715 1.8571-2.1 4.6427-3.15 8.2537-3.15 3.611 0 6.2934 1.05 8.2537 3.15 1.857 2.1 2.8887 4.935 2.8887 8.715v24.675c0 3.78-.9285 6.72-2.8887 8.715-1.8571 2.1-4.6427 3.15-8.2537 3.15-3.611 0-6.3966-1.05-8.2537-3.045Zm11.9678-8.295V185.06c0-3.15-1.238-4.62-3.8173-4.62-2.4761 0-3.8173 1.575-3.8173 4.62v25.725c0 3.15 1.2381 4.62 3.8173 4.62 2.4761 0 3.8173-1.575 3.8173-4.62ZM25.6824 219.08C23.8254 217.085 23 214.145 23 210.26v-2.73h6.9124v3.255c0 3.045 1.2381 4.62 3.8174 4.62 1.238 0 2.1666-.42 2.7856-1.155.619-.735.9285-1.89.9285-3.57 0-1.995-.4127-3.675-1.3412-5.25-.9285-1.47-2.4761-3.36-4.849-5.46-2.992-2.73-5.0554-5.145-6.2935-7.35-1.238-2.205-1.7539-4.62-1.7539-7.35 0-3.675.9286-6.615 2.7857-8.61 1.857-1.995 4.5395-3.045 8.0473-3.045 3.5078 0 6.0871 1.05 7.9441 3.045 1.7539 1.995 2.6825 4.935 2.6825 8.82v1.995h-6.9125v-2.415c0-1.575-.3095-2.835-.9285-3.57-.619-.735-1.5476-1.155-2.6824-1.155-2.4761 0-3.611 1.47-3.611 4.515 0 1.68.4127 3.255 1.3412 4.83.9285 1.47 2.5793 3.255 4.9522 5.355 3.0951 2.73 5.1585 5.145 6.2934 7.35s1.7539 4.83 1.7539 7.77c0 3.885-.9285 6.825-2.7856 8.925-1.8571 2.1-4.6427 3.15-8.1505 3.15-3.8173-.105-6.3966-1.155-8.2537-3.15Z" />
    <g fill="#FF540A">
        <path
            d="M161.099 113.89c-2.478 0-4.56-2.205-4.56-4.83V79.345c0-2.625 2.082-4.83 4.56-4.83 2.479 0 4.56 2.205 4.56 4.83v29.715c0 2.625-2.081 4.83-4.56 4.83ZM142.659 129.22c-2.478 0-4.56-2.205-4.56-4.83V64.0151c0-2.625 2.082-4.83 4.56-4.83 2.479 0 4.561 2.205 4.561 4.83V124.39c.099 2.625-1.983 4.83-4.561 4.83ZM124.319 120.19c-2.478 0-4.56-2.205-4.56-4.83V72.9401c0-2.625 2.082-4.83 4.56-4.83 2.478 0 4.56 2.205 4.56 4.83V115.36c.099 2.73-1.982 4.83-4.56 4.83ZM105.978 129.22c-2.478 0-4.56-2.205-4.56-4.83V64.0151c0-2.625 2.082-4.83 4.56-4.83 2.479 0 4.561 2.205 4.561 4.83V124.39c.099 2.625-1.983 4.83-4.561 4.83ZM87.6379 113.89c-2.4784 0-4.5603-2.205-4.5603-4.83V79.345c0-2.625 2.0819-4.83 4.5603-4.83 2.4785 0 4.5604 2.205 4.5604 4.83v29.715c0 2.625-1.9828 4.83-4.5604 4.83Z" />
    </g>
    <path stroke="#000" stroke-miterlimit="10" stroke-width="10"
        d="M171.211 163.66H77.5259c-10.3104 0-18.8362-9.03-18.8362-19.95V44.59c0-10.92 8.5258-19.95 18.8362-19.95h93.5861c10.31 0 18.836 8.925 18.836 19.95v99.12c.099 11.025-8.426 19.95-18.737 19.95Z" />
    <path fill="#000"
        d="M28.1552 101.29c-2.875 0-5.1552-2.52-5.1552-5.46V62.335c0-3.045 2.3793-5.46 5.1552-5.46 2.875 0 5.1551 2.52 5.1551 5.46V95.83c0 3.045-2.2801 5.46-5.1551 5.46ZM220.582 101.29c-2.875 0-5.155-2.52-5.155-5.46V62.335c0-3.045 2.379-5.46 5.155-5.46 2.875 0 5.155 2.52 5.155 5.46V95.83c0 3.045-2.28 5.46-5.155 5.46Z" />
    <path stroke="#000" stroke-linecap="round" stroke-miterlimit="10" stroke-width="10"
        d="M206.108 100.87V27.685c0-11.34-8.823-20.685-19.53-20.685H62.1595c-10.7069 0-19.5302 9.345-19.5302 20.685v73.185" />
</svg>