<svg xmlns="http://www.w3.org/2000/svg" width="325" height="91" fill="none" viewBox="0 0 325 91"><g fill="#000"><path d="M154.983 84.7999V75.14l-4.561 8.0849h-.793l-4.56-7.9799v9.5549h-1.685v-13.23h1.487l5.254 9.3451 5.155-9.3451h1.487v13.23h-1.784ZM161.724 83.435c-.892-1.05-1.388-2.415-1.388-4.305v-7.56h1.785v7.4549c0 2.835 1.189 4.2 3.469 4.2 1.19 0 1.983-.315 2.578-1.05.595-.735.892-1.7849.892-3.2549v-7.455h1.686v7.5599c0 1.89-.496 3.3601-1.388 4.3051-.893.945-2.181 1.4699-3.867 1.4699-1.685 0-2.875-.4199-3.767-1.3649ZM175.405 84.485c-.892-.315-1.586-.735-2.082-1.155l.694-1.47c.496.42 1.091.84 1.785 1.155.793.315 1.487.42 2.28.42.991 0 1.784-.21 2.28-.525.496-.42.793-.84.793-1.47 0-.42-.099-.84-.396-1.155-.298-.315-.595-.525-.992-.63-.396-.105-.991-.315-1.784-.525-.893-.21-1.686-.525-2.28-.735-.595-.21-1.091-.63-1.488-1.155-.396-.525-.594-1.155-.594-1.995 0-.735.198-1.365.495-1.89.397-.525.893-1.05 1.587-1.365.694-.315 1.586-.525 2.676-.525.694 0 1.487.105 2.181.315.694.21 1.289.525 1.884.84l-.595 1.47c-.496-.315-1.09-.63-1.685-.84-.595-.21-1.19-.315-1.785-.315-.991 0-1.784.21-2.28.63-.496.42-.793.945-.793 1.47 0 .42.099.84.397 1.155.297.315.594.525 1.09.63.397.21.991.315 1.685.525.893.21 1.686.525 2.281.735.594.21 1.09.63 1.487 1.05.396.42.594 1.1549.594 1.9949 0 .735-.198 1.3651-.495 1.8901-.298.525-.892 1.05-1.586 1.365-.694.315-1.587.525-2.677.525-.892 0-1.785-.21-2.677-.42ZM185.616 71.5699h1.785v13.23h-1.785v-13.23ZM193.349 84.065c-.991-.63-1.784-1.3651-2.379-2.4151-.595-1.05-.892-2.2049-.892-3.4649 0-1.26.297-2.415.892-3.465.595-1.05 1.388-1.785 2.379-2.415.992-.63 2.181-.84 3.371-.84.991 0 1.883.21 2.677.525.793.315 1.487.84 2.081 1.575l-1.189 1.155c-.892-1.05-2.082-1.575-3.47-1.575-.892 0-1.785.2099-2.478.6299-.794.42-1.289 1.0501-1.785 1.7851-.397.735-.595 1.68-.595 2.625 0 .945.198 1.785.595 2.625.397.735.991 1.365 1.785 1.785.793.42 1.586.6299 2.478.6299 1.388 0 2.578-.525 3.47-1.575l1.189 1.1551c-.594.63-1.288 1.155-2.081 1.575-.794.42-1.686.525-2.677.525-1.289 0-2.379-.315-3.371-.84ZM209.806 84.485c-.892-.315-1.586-.735-2.082-1.155l.694-1.47c.496.42 1.091.84 1.785 1.155.793.315 1.487.42 2.28.42.991 0 1.784-.21 2.28-.525.496-.42.793-.84.793-1.47 0-.42-.099-.84-.397-1.155-.297-.315-.594-.525-.991-.63-.396-.105-.991-.315-1.784-.525-.893-.21-1.686-.525-2.281-.735-.594-.21-1.09-.63-1.487-1.155-.396-.525-.594-1.155-.594-1.995 0-.735.198-1.365.495-1.89.397-.525.892-1.05 1.586-1.365.694-.315 1.587-.525 2.677-.525.694 0 1.487.105 2.181.315.694.21 1.289.525 1.884.84l-.595 1.47c-.496-.315-1.091-.63-1.685-.84-.595-.21-1.19-.315-1.785-.315-.991 0-1.784.21-2.28.63-.496.42-.793.945-.793 1.47 0 .42.099.84.396 1.155.298.315.595.525 1.091.63.397.21.991.315 1.685.525.893.21 1.686.525 2.28.735.595.21 1.091.63 1.488 1.05.396.42.594 1.1549.594 1.9949 0 .735-.198 1.3651-.495 1.8901-.298.525-.893 1.05-1.587 1.365-.693.315-1.586.525-2.676.525-.992 0-1.884-.21-2.677-.42ZM222.198 73.145h-4.263v-1.68h10.311v1.68h-4.263v11.55h-1.785v-11.55ZM232.31 84.065c-.991-.63-1.784-1.3651-2.379-2.4151-.595-1.05-.892-2.2049-.892-3.4649 0-1.26.297-2.415.892-3.465.595-1.05 1.388-1.89 2.379-2.415.992-.525 2.181-.84 3.371-.84 1.289 0 2.379.315 3.371.84.991.63 1.784 1.365 2.379 2.415s.892 2.205.892 3.465c0 1.26-.297 2.4149-.892 3.4649-.595 1.05-1.388 1.7851-2.379 2.4151-.992.63-2.181.84-3.371.84-1.289 0-2.379-.315-3.371-.84Zm5.849-1.47c.694-.42 1.289-1.05 1.686-1.785.396-.735.595-1.68.595-2.625 0-.945-.199-1.785-.595-2.625-.397-.84-.992-1.3651-1.686-1.7851-.694-.42-1.586-.6299-2.478-.6299-.892 0-1.784.2099-2.478.6299-.794.42-1.289 1.0501-1.785 1.7851-.496.735-.595 1.68-.595 2.625 0 .945.199 1.785.595 2.625.397.84.991 1.365 1.785 1.785.793.42 1.586.6299 2.478.6299.892 0 1.784-.2099 2.478-.6299ZM253.427 84.7999l-2.677-4.0949h-3.866v3.99h-1.785v-13.23h4.858c1.586 0 2.875.42 3.866 1.26.893.84 1.388 1.995 1.388 3.36 0 1.05-.198 1.89-.694 2.625-.495.735-1.189 1.26-2.082 1.575l2.974 4.41h-1.982v.1049Zm-.992-6.5099c.595-.525.893-1.26.893-2.205 0-.945-.298-1.68-.893-2.205-.595-.525-1.487-.735-2.577-.735h-3.074v5.985h3.074c1.09 0 1.982-.315 2.577-.84ZM267.108 83.12v1.6799h-9.022v-13.23h8.823V73.25h-7.038v4.095h6.245v1.575h-6.245v4.3049h7.237V83.12Z"/></g><path fill="#000" d="M311.422 5c.794 0 1.686.21 2.479.63.793.42 1.388 1.05 1.883 1.89.397.84.694 1.68.694 2.625 0 .945-.198 1.785-.694 2.625-.396.84-1.09 1.47-1.784 1.995-.793.42-1.586.735-2.478.735-.893 0-1.686-.21-2.479-.735-.793-.42-1.388-1.155-1.884-1.995-.396-.84-.693-1.68-.693-2.625 0-.945.198-1.785.693-2.625.397-.84 1.091-1.47 1.884-1.89.793-.42 1.586-.63 2.379-.63Zm0 .84c-.694 0-1.388.21-2.081.525-.694.315-1.19.945-1.587 1.575-.396.735-.595 1.47-.595 2.205 0 .735.199 1.47.595 2.205.397.735.893 1.26 1.487 1.575.595.315 1.388.63 2.082.63s1.388-.21 2.082-.63c.694-.42 1.19-.945 1.487-1.575.397-.735.496-1.365.496-2.205 0-.735-.198-1.47-.595-2.205-.396-.735-.892-1.26-1.586-1.575-.694-.315-1.091-.525-1.785-.525Zm-2.181 7.35V7.52h1.785c.595 0 1.09 0 1.388.105.297.105.495.315.694.525.198.21.297.525.297.84 0 .42-.099.735-.396 1.05-.298.315-.694.525-1.091.525.198.105.298.21.496.315.198.21.495.63.793 1.155l.694 1.155h-1.091l-.495-.84c-.397-.735-.694-1.155-.893-1.365-.198-.105-.396-.21-.694-.21h-.495v2.415h-.992Zm.893-3.255h1.09c.496 0 .793-.105.992-.21.198-.105.297-.315.297-.63 0-.21 0-.315-.099-.42-.099-.105-.198-.21-.397-.315-.198-.105-.396-.105-.892-.105h-.991v1.68ZM287.629 35.345l-7.732-22.995h7.336l4.659 15.225h.099l4.858-15.225h6.642l-7.732 22.995 8.03 24.15h-7.336l-5.056-16.38h-.1l-5.254 16.38h-6.642l8.228-24.15ZM259.871 57.08c-1.785-2.1-2.776-4.935-2.776-8.715v-24.78c0-3.78.892-6.72 2.776-8.715 1.784-2.1 4.461-3.15 7.931-3.15 3.47 0 6.047 1.05 7.931 3.15 1.784 2.1 2.776 4.935 2.776 8.715V48.26c0 3.78-.893 6.72-2.776 8.715-1.785 2.1-4.461 3.15-7.931 3.15-3.47 0-6.147-1.05-7.931-3.045Zm11.5-8.295V23.06c0-3.15-1.19-4.62-3.668-4.62-2.38 0-3.668 1.575-3.668 4.62v25.725c0 3.15 1.189 4.62 3.668 4.62 2.478 0 3.668-1.575 3.668-4.62ZM232.608 12.35h10.508c3.569 0 6.246.84 7.931 2.625 1.686 1.785 2.479 4.515 2.479 8.19v1.89c0 2.415-.397 4.41-1.091 5.88-.694 1.575-1.883 2.625-3.37 3.255v.105c3.47 1.26 5.254 4.515 5.254 9.87v3.99c0 3.675-.892 6.405-2.677 8.295-1.784 1.89-4.461 2.835-7.931 2.835h-11.004V12.35h-.099Zm9.715 19.11c1.388 0 2.479-.42 3.173-1.155.694-.735 1.09-1.995 1.09-3.885v-2.625c0-1.68-.297-2.94-.892-3.675-.595-.735-1.487-1.155-2.677-1.155h-3.37V31.46h2.676Zm1.289 21.21c1.19 0 2.181-.315 2.776-1.05.595-.735.892-1.89.892-3.57v-4.095c0-2.205-.396-3.675-1.09-4.515-.694-.84-1.884-1.26-3.47-1.26h-3.073v14.49h3.965Z"/><path fill="#FF540A" d="M207.427 12.35h10.707c3.469 0 6.047.945 7.832 2.94 1.784 1.995 2.577 4.83 2.577 8.715V47.84c0 3.78-.892 6.72-2.577 8.715-1.785 1.995-4.363 2.94-7.832 2.94h-10.707V12.35Zm10.508 40.32c1.19 0 1.983-.315 2.677-1.05.595-.735.892-1.89.892-3.465V23.69c0-1.575-.297-2.835-.892-3.465-.595-.735-1.487-1.05-2.677-1.05h-3.569V52.88h3.569v-.21ZM180.957 12.35h8.823l6.841 28.245h.099V12.35h6.246v47.145h-7.138l-8.427-34.44h-.298v34.44h-6.245V12.35h.099ZM158.453 57.08c-1.785-1.995-2.677-4.935-2.677-8.82V12.35h7.039v36.54c0 1.575.297 2.835.892 3.465.595.735 1.487 1.05 2.677 1.05 1.189 0 1.982-.315 2.676-1.05.595-.735.893-1.89.893-3.465V12.35h6.741v35.91c0 3.78-.892 6.72-2.677 8.82-1.784 1.995-4.362 3.045-7.733 3.045-3.469 0-6.047-1.05-7.831-3.045ZM133.47 57.08c-1.785-2.1-2.776-4.935-2.776-8.715v-24.78c0-3.78.892-6.72 2.776-8.715 1.784-2.1 4.461-3.15 7.931-3.15 3.47 0 6.047 1.05 7.931 3.15 1.784 2.1 2.776 4.935 2.776 8.715V48.26c0 3.78-.892 6.72-2.776 8.715-1.785 2.1-4.461 3.15-7.931 3.15-3.47 0-6.147-1.05-7.931-3.045Zm11.5-8.295V23.06c0-3.15-1.19-4.62-3.668-4.62-2.38 0-3.668 1.575-3.668 4.62v25.725c0 3.15 1.189 4.62 3.668 4.62 2.379 0 3.668-1.575 3.668-4.62ZM109.578 57.08c-1.785-1.995-2.578-4.935-2.578-8.82v-2.73h6.642v3.255c0 3.045 1.19 4.62 3.668 4.62 1.19 0 2.082-.42 2.677-1.155.595-.735.892-1.89.892-3.57 0-1.995-.396-3.675-1.288-5.25-.893-1.47-2.38-3.36-4.66-5.46-2.875-2.73-4.858-5.145-6.047-7.35-1.19-2.205-1.686-4.62-1.686-7.35 0-3.675.893-6.615 2.677-8.61 1.784-1.995 4.362-3.045 7.733-3.045 3.37 0 5.849 1.05 7.633 3.045 1.686 1.995 2.578 4.935 2.578 8.82v1.995h-6.642V23.06c0-1.575-.298-2.835-.893-3.57-.594-.735-1.487-1.155-2.577-1.155-2.379 0-3.47 1.47-3.47 4.515 0 1.68.397 3.255 1.289 4.83.892 1.47 2.478 3.255 4.758 5.355 2.975 2.73 4.957 5.145 6.048 7.35 1.09 2.205 1.685 4.83 1.685 7.77 0 3.885-.892 6.825-2.676 8.925-1.785 2.1-4.462 3.15-7.832 3.15-3.668-.105-6.147-1.155-7.931-3.15Z"/><g fill="#FF540A"><path d="M68.3053 56.3968c-1.1003 0-2.0245-.9571-2.0245-2.0966V41.4021c0-1.1394.9242-2.0965 2.0245-2.0965 1.1002 0 2.0244.9571 2.0244 2.0965v12.8981c0 1.1395-.9242 2.0966-2.0244 2.0966ZM60.1196 63.051c-1.1002 0-2.0244-.9572-2.0244-2.0966V34.748c0-1.1394.9242-2.0965 2.0244-2.0965 1.1003 0 2.0245.9571 2.0245 2.0965v26.2064c.044 1.1394-.8802 2.0966-2.0245 2.0966ZM51.9779 59.1313c-1.1003 0-2.0245-.9571-2.0245-2.0965V38.622c0-1.1394.9242-2.0965 2.0245-2.0965 1.1002 0 2.0244.9571 2.0244 2.0965v18.4128c.044 1.185-.8802 2.0965-2.0244 2.0965ZM43.8364 63.051c-1.1003 0-2.0245-.9572-2.0245-2.0966V34.748c0-1.1394.9242-2.0965 2.0245-2.0965 1.1002 0 2.0244.9571 2.0244 2.0965v26.2064c.044 1.1394-.8802 2.0966-2.0244 2.0966ZM35.6942 56.3968c-1.1003 0-2.0245-.9571-2.0245-2.0966V41.4021c0-1.1394.9242-2.0965 2.0245-2.0965 1.1002 0 2.0244.9571 2.0244 2.0965v12.8981c0 1.1395-.8802 2.0966-2.0244 2.0966Z"/></g><path stroke="#000" stroke-miterlimit="10" stroke-width="5" d="M72.7948 78H31.2055c-4.577 0-8.3618-3.9195-8.3618-8.6595V26.3164c0-4.74 3.7848-8.6595 8.3618-8.6595h41.5453c4.577 0 8.3618 3.874 8.3618 8.6595v43.0241C81.1566 74.126 77.3718 78 72.7948 78Z"/><path fill="#000" d="M9.2885 50.9276C8.0122 50.9276 7 49.8338 7 48.5577V34.0188c0-1.3217 1.0562-2.37 2.2885-2.37 1.2763 0 2.2885 1.0938 2.2885 2.37v14.5389c0 1.3217-1.0122 2.3699-2.2885 2.3699ZM94.7113 50.9276c-1.2763 0-2.2885-1.0938-2.2885-2.3699V34.0188c0-1.3217 1.0562-2.37 2.2885-2.37 1.2762 0 2.2885 1.0938 2.2885 2.37v14.5389c0 1.3217-1.0123 2.3699-2.2885 2.3699Z"/><path stroke="#000" stroke-linecap="round" stroke-miterlimit="10" stroke-width="5" d="M88.2859 50.7453V18.9786c0-4.9223-3.9168-8.9786-8.6699-8.9786H24.3837c-4.753 0-8.6699 4.0563-8.6699 8.9786v31.7667"/></svg>