<svg width="250" height="250" viewBox="0 0 250 250" fill="none" xmlns="http://www.w3.org/2000/svg">
    <g id="Error-400">
        <g id="TEXT">
            <path id="BAD-REQUEST"
                d="M56.2987 239V225.7H62.2647C63.7974 225.7 64.9754 226.01 65.7987 226.631C66.622 227.239 67.0337 228.075 67.0337 229.139C67.0337 229.861 66.869 230.469 66.5397 230.963C66.223 231.457 65.7924 231.837 65.2477 232.103C64.703 232.369 64.114 232.502 63.4807 232.502L63.8227 231.932C64.5827 231.932 65.254 232.065 65.8367 232.331C66.4194 232.597 66.8817 232.99 67.2237 233.509C67.5657 234.016 67.7367 234.649 67.7367 235.409C67.7367 236.549 67.306 237.436 66.4447 238.069C65.596 238.69 64.3294 239 62.6447 239H56.2987ZM58.1987 237.461H62.5687C63.62 237.461 64.4244 237.284 64.9817 236.929C65.539 236.574 65.8177 236.017 65.8177 235.257C65.8177 234.484 65.539 233.921 64.9817 233.566C64.4244 233.211 63.62 233.034 62.5687 233.034H58.0277V231.495H62.0937C63.0564 231.495 63.8037 231.318 64.3357 230.963C64.8677 230.608 65.1337 230.076 65.1337 229.367C65.1337 228.658 64.8677 228.126 64.3357 227.771C63.8037 227.416 63.0564 227.239 62.0937 227.239H58.1987V237.461ZM68.6646 239L74.6876 225.7H76.5686L82.6106 239H80.6156L75.2386 226.764H75.9986L70.6216 239H68.6646ZM71.2296 235.675L71.7426 234.155H79.2286L79.7796 235.675H71.2296ZM84.5946 239V225.7H90.1996C91.6183 225.7 92.8659 225.979 93.9426 226.536C95.0319 227.093 95.8743 227.872 96.4696 228.873C97.0776 229.874 97.3816 231.033 97.3816 232.35C97.3816 233.667 97.0776 234.826 96.4696 235.827C95.8743 236.828 95.0319 237.607 93.9426 238.164C92.8659 238.721 91.6183 239 90.1996 239H84.5946ZM86.4946 237.347H90.0856C91.1876 237.347 92.1376 237.138 92.9356 236.72C93.7463 236.302 94.3733 235.719 94.8166 234.972C95.2599 234.212 95.4816 233.338 95.4816 232.35C95.4816 231.349 95.2599 230.475 94.8166 229.728C94.3733 228.981 93.7463 228.398 92.9356 227.98C92.1376 227.562 91.1876 227.353 90.0856 227.353H86.4946V237.347ZM99.5098 234.573V232.996H104.621V234.573H99.5098ZM107.695 239V225.7H112.882C114.048 225.7 115.042 225.884 115.865 226.251C116.689 226.618 117.322 227.15 117.765 227.847C118.209 228.544 118.43 229.373 118.43 230.336C118.43 231.299 118.209 232.128 117.765 232.825C117.322 233.509 116.689 234.035 115.865 234.402C115.042 234.769 114.048 234.953 112.882 234.953H108.74L109.595 234.079V239H107.695ZM116.587 239L113.205 234.174H115.238L118.658 239H116.587ZM109.595 234.269L108.74 233.338H112.825C114.041 233.338 114.96 233.078 115.58 232.559C116.214 232.027 116.53 231.286 116.53 230.336C116.53 229.386 116.214 228.651 115.58 228.132C114.96 227.613 114.041 227.353 112.825 227.353H108.74L109.595 226.403V234.269ZM123.229 231.438H130.069V233.053H123.229V231.438ZM123.4 237.347H131.152V239H121.5V225.7H130.886V227.353H123.4V237.347ZM140.214 239.152C139.201 239.152 138.257 238.981 137.383 238.639C136.522 238.297 135.774 237.822 135.141 237.214C134.508 236.593 134.014 235.871 133.659 235.048C133.304 234.225 133.127 233.325 133.127 232.35C133.127 231.375 133.304 230.475 133.659 229.652C134.014 228.829 134.508 228.113 135.141 227.505C135.774 226.884 136.522 226.403 137.383 226.061C138.244 225.719 139.188 225.548 140.214 225.548C141.227 225.548 142.158 225.719 143.007 226.061C143.868 226.39 144.616 226.865 145.249 227.486C145.895 228.094 146.389 228.81 146.731 229.633C147.086 230.456 147.263 231.362 147.263 232.35C147.263 233.338 147.086 234.244 146.731 235.067C146.389 235.89 145.895 236.612 145.249 237.233C144.616 237.841 143.868 238.316 143.007 238.658C142.158 238.987 141.227 239.152 140.214 239.152ZM144.565 241.774C144.122 241.774 143.697 241.717 143.292 241.603C142.887 241.502 142.481 241.331 142.076 241.09C141.671 240.862 141.253 240.558 140.822 240.178C140.391 239.811 139.923 239.355 139.416 238.81L141.449 238.278C141.829 238.747 142.19 239.127 142.532 239.418C142.887 239.722 143.235 239.937 143.577 240.064C143.919 240.203 144.255 240.273 144.584 240.273C145.534 240.273 146.345 239.893 147.016 239.133L147.909 240.216C147.048 241.255 145.933 241.774 144.565 241.774ZM140.214 237.461C140.949 237.461 141.626 237.334 142.247 237.081C142.88 236.828 143.425 236.467 143.881 235.998C144.35 235.529 144.711 234.985 144.964 234.364C145.23 233.743 145.363 233.072 145.363 232.35C145.363 231.615 145.23 230.938 144.964 230.317C144.711 229.696 144.35 229.158 143.881 228.702C143.425 228.233 142.88 227.872 142.247 227.619C141.626 227.366 140.949 227.239 140.214 227.239C139.467 227.239 138.776 227.366 138.143 227.619C137.522 227.872 136.978 228.233 136.509 228.702C136.04 229.158 135.673 229.696 135.407 230.317C135.154 230.938 135.027 231.615 135.027 232.35C135.027 233.072 135.154 233.743 135.407 234.364C135.673 234.985 136.04 235.529 136.509 235.998C136.978 236.467 137.522 236.828 138.143 237.081C138.776 237.334 139.467 237.461 140.214 237.461ZM155.677 239.152C153.929 239.152 152.555 238.652 151.554 237.651C150.553 236.65 150.053 235.187 150.053 233.262V225.7H151.953V233.186C151.953 234.668 152.276 235.751 152.922 236.435C153.581 237.119 154.505 237.461 155.696 237.461C156.899 237.461 157.824 237.119 158.47 236.435C159.129 235.751 159.458 234.668 159.458 233.186V225.7H161.301V233.262C161.301 235.187 160.801 236.65 159.8 237.651C158.812 238.652 157.438 239.152 155.677 239.152ZM166.925 231.438H173.765V233.053H166.925V231.438ZM167.096 237.347H174.848V239H165.196V225.7H174.582V227.353H167.096V237.347ZM181.801 239.152C180.787 239.152 179.818 239 178.894 238.696C177.969 238.379 177.241 237.974 176.709 237.48L177.412 235.998C177.918 236.441 178.564 236.809 179.35 237.1C180.135 237.391 180.952 237.537 181.801 237.537C182.573 237.537 183.2 237.448 183.682 237.271C184.163 237.094 184.518 236.853 184.746 236.549C184.974 236.232 185.088 235.878 185.088 235.485C185.088 235.029 184.936 234.662 184.632 234.383C184.34 234.104 183.954 233.883 183.473 233.718C183.004 233.541 182.485 233.389 181.915 233.262C181.345 233.135 180.768 232.99 180.186 232.825C179.616 232.648 179.09 232.426 178.609 232.16C178.14 231.894 177.76 231.539 177.469 231.096C177.177 230.64 177.032 230.057 177.032 229.348C177.032 228.664 177.209 228.037 177.564 227.467C177.931 226.884 178.488 226.422 179.236 226.08C179.996 225.725 180.958 225.548 182.124 225.548C182.896 225.548 183.663 225.649 184.423 225.852C185.183 226.055 185.841 226.346 186.399 226.726L185.772 228.246C185.202 227.866 184.6 227.594 183.967 227.429C183.333 227.252 182.719 227.163 182.124 227.163C181.376 227.163 180.762 227.258 180.281 227.448C179.799 227.638 179.445 227.891 179.217 228.208C179.001 228.525 178.894 228.879 178.894 229.272C178.894 229.741 179.039 230.114 179.331 230.393C179.635 230.672 180.021 230.893 180.49 231.058C180.971 231.223 181.497 231.375 182.067 231.514C182.637 231.641 183.207 231.786 183.777 231.951C184.359 232.116 184.885 232.331 185.354 232.597C185.835 232.863 186.221 233.218 186.513 233.661C186.804 234.104 186.95 234.674 186.95 235.371C186.95 236.042 186.766 236.669 186.399 237.252C186.031 237.822 185.461 238.284 184.689 238.639C183.929 238.981 182.966 239.152 181.801 239.152ZM192.181 239V227.353H187.621V225.7H198.622V227.353H194.062V239H192.181Z"
                fill="black" />
            <g id="ERROR400">
                <path
                    d="M28.583 173.9H47.483V180.2H35.513V191.855H45.026V198.155H35.513V211.7H47.483V218H28.583V173.9ZM51.4697 173.9H61.7387C65.3087 173.9 67.9127 174.74 69.5507 176.42C71.1887 178.058 72.0077 180.599 72.0077 184.043V186.752C72.0077 191.33 70.4957 194.228 67.4717 195.446V195.572C69.1517 196.076 70.3277 197.105 70.9997 198.659C71.7137 200.213 72.0707 202.292 72.0707 204.896V212.645C72.0707 213.905 72.1127 214.934 72.1967 215.732C72.2807 216.488 72.4907 217.244 72.8267 218H65.7707C65.5187 217.286 65.3507 216.614 65.2667 215.984C65.1827 215.354 65.1407 214.22 65.1407 212.582V204.518C65.1407 202.502 64.8047 201.095 64.1327 200.297C63.5027 199.499 62.3897 199.1 60.7937 199.1H58.3997V218H51.4697V173.9ZM60.9197 192.8C62.3057 192.8 63.3347 192.443 64.0067 191.729C64.7207 191.015 65.0777 189.818 65.0777 188.138V184.736C65.0777 183.14 64.7837 181.985 64.1957 181.271C63.6497 180.557 62.7677 180.2 61.5497 180.2H58.3997V192.8H60.9197ZM76.8789 173.9H87.1479C90.7179 173.9 93.3219 174.74 94.9599 176.42C96.5979 178.058 97.4169 180.599 97.4169 184.043V186.752C97.4169 191.33 95.9049 194.228 92.8809 195.446V195.572C94.5609 196.076 95.7369 197.105 96.4089 198.659C97.1229 200.213 97.4799 202.292 97.4799 204.896V212.645C97.4799 213.905 97.5219 214.934 97.6059 215.732C97.6899 216.488 97.8999 217.244 98.2359 218H91.1799C90.9279 217.286 90.7599 216.614 90.6759 215.984C90.5919 215.354 90.5499 214.22 90.5499 212.582V204.518C90.5499 202.502 90.2139 201.095 89.5419 200.297C88.9119 199.499 87.7989 199.1 86.2029 199.1H83.8089V218H76.8789V173.9ZM86.3289 192.8C87.7149 192.8 88.7439 192.443 89.4159 191.729C90.1299 191.015 90.4869 189.818 90.4869 188.138V184.736C90.4869 183.14 90.1929 181.985 89.6049 181.271C89.0589 180.557 88.1769 180.2 86.9589 180.2H83.8089V192.8H86.3289ZM112.305 218.63C108.903 218.63 106.299 217.664 104.493 215.732C102.687 213.8 101.784 211.07 101.784 207.542V184.358C101.784 180.83 102.687 178.1 104.493 176.168C106.299 174.236 108.903 173.27 112.305 173.27C115.707 173.27 118.311 174.236 120.117 176.168C121.923 178.1 122.826 180.83 122.826 184.358V207.542C122.826 211.07 121.923 213.8 120.117 215.732C118.311 217.664 115.707 218.63 112.305 218.63ZM112.305 212.33C114.699 212.33 115.896 210.881 115.896 207.983V183.917C115.896 181.019 114.699 179.57 112.305 179.57C109.911 179.57 108.714 181.019 108.714 183.917V207.983C108.714 210.881 109.911 212.33 112.305 212.33ZM127.513 173.9H137.782C141.352 173.9 143.956 174.74 145.594 176.42C147.232 178.058 148.051 180.599 148.051 184.043V186.752C148.051 191.33 146.539 194.228 143.515 195.446V195.572C145.195 196.076 146.371 197.105 147.043 198.659C147.757 200.213 148.114 202.292 148.114 204.896V212.645C148.114 213.905 148.156 214.934 148.24 215.732C148.324 216.488 148.534 217.244 148.87 218H141.814C141.562 217.286 141.394 216.614 141.31 215.984C141.226 215.354 141.184 214.22 141.184 212.582V204.518C141.184 202.502 140.848 201.095 140.176 200.297C139.546 199.499 138.433 199.1 136.837 199.1H134.443V218H127.513V173.9ZM136.963 192.8C138.349 192.8 139.378 192.443 140.05 191.729C140.764 191.015 141.121 189.818 141.121 188.138V184.736C141.121 183.14 140.827 181.985 140.239 181.271C139.693 180.557 138.811 180.2 137.593 180.2H134.443V192.8H136.963Z"
                    fill="#FF540A" />
                <path
                    d="M164.514 209.999H151.284V203.699L163.884 173.9H171.444V203.699H174.72V209.999H171.444V218H164.514V209.999ZM164.514 203.699V186.5H164.388L157.584 203.699H164.514ZM188.163 218.63C184.761 218.63 182.157 217.664 180.351 215.732C178.545 213.8 177.642 211.07 177.642 207.542V184.358C177.642 180.83 178.545 178.1 180.351 176.168C182.157 174.236 184.761 173.27 188.163 173.27C191.565 173.27 194.169 174.236 195.975 176.168C197.781 178.1 198.684 180.83 198.684 184.358V207.542C198.684 211.07 197.781 213.8 195.975 215.732C194.169 217.664 191.565 218.63 188.163 218.63ZM188.163 212.33C190.557 212.33 191.754 210.881 191.754 207.983V183.917C191.754 181.019 190.557 179.57 188.163 179.57C185.769 179.57 184.572 181.019 184.572 183.917V207.983C184.572 210.881 185.769 212.33 188.163 212.33ZM213.388 218.63C209.986 218.63 207.382 217.664 205.576 215.732C203.77 213.8 202.867 211.07 202.867 207.542V184.358C202.867 180.83 203.77 178.1 205.576 176.168C207.382 174.236 209.986 173.27 213.388 173.27C216.79 173.27 219.394 174.236 221.2 176.168C223.006 178.1 223.909 180.83 223.909 184.358V207.542C223.909 211.07 223.006 213.8 221.2 215.732C219.394 217.664 216.79 218.63 213.388 218.63ZM213.388 212.33C215.782 212.33 216.979 210.881 216.979 207.983V183.917C216.979 181.019 215.782 179.57 213.388 179.57C210.994 179.57 209.797 181.019 209.797 183.917V207.983C209.797 210.881 210.994 212.33 213.388 212.33Z"
                    fill="black" />
            </g>
        </g>
        <g id="ICON">
            <path id="Vector"
                d="M172.211 163.66H78.5258C68.2155 163.66 59.6896 154.63 59.6896 143.71V44.59C59.6896 33.67 68.2155 24.64 78.5258 24.64H172.112C182.422 24.64 190.948 33.565 190.948 44.59V143.71C191.047 154.735 182.522 163.66 172.211 163.66Z"
                stroke="black" stroke-width="10" stroke-miterlimit="10" />
            <path id="Vector_2"
                d="M29.1552 101.29C26.2802 101.29 24 98.77 24 95.83V62.335C24 59.29 26.3793 56.875 29.1552 56.875C32.0302 56.875 34.3103 59.395 34.3103 62.335V95.83C34.3103 98.875 32.0302 101.29 29.1552 101.29Z"
                fill="black" />
            <path id="Vector_3"
                d="M221.582 101.29C218.707 101.29 216.427 98.77 216.427 95.83V62.335C216.427 59.29 218.806 56.875 221.582 56.875C224.457 56.875 226.737 59.395 226.737 62.335V95.83C226.737 98.875 224.457 101.29 221.582 101.29Z"
                fill="black" />
            <path id="Vector_4"
                d="M207.108 100.87V27.685C207.108 16.345 198.285 7 187.578 7H63.1595C52.4526 7 43.6293 16.345 43.6293 27.685V100.87"
                stroke="black" stroke-width="10" stroke-miterlimit="10" stroke-linecap="round" />
            <g id="Group 1">
                <circle id="Ellipse 1" cx="125.5" cy="94.5" r="42.5" stroke="#FF540A" stroke-width="10" />
                <path id="Line 6" d="M96.9998 122.494L153.494 66" stroke="#FF540A" stroke-width="10"
                    stroke-linecap="round" />
            </g>
        </g>
    </g>
</svg>