<svg width="250" height="250" viewBox="0 0 250 250" fill="none" xmlns="http://www.w3.org/2000/svg">
    <g id="Error-403">
        <g id="TEXT">
            <path id="FORBIDEN"
                d="M77.3149 231.989H84.1739V233.623H77.3149V231.989ZM77.5049 239H75.6049V225.7H84.9909V227.353H77.5049V239ZM93.521 239.152C92.5076 239.152 91.564 238.981 90.69 238.639C89.8286 238.297 89.0813 237.822 88.448 237.214C87.8146 236.593 87.3206 235.871 86.966 235.048C86.6113 234.225 86.434 233.325 86.434 232.35C86.434 231.375 86.6113 230.475 86.966 229.652C87.3206 228.829 87.8146 228.113 88.448 227.505C89.0813 226.884 89.8286 226.403 90.69 226.061C91.5513 225.719 92.495 225.548 93.521 225.548C94.5343 225.548 95.4653 225.719 96.314 226.061C97.1753 226.39 97.9226 226.865 98.556 227.486C99.202 228.094 99.696 228.81 100.038 229.633C100.393 230.456 100.57 231.362 100.57 232.35C100.57 233.338 100.393 234.244 100.038 235.067C99.696 235.89 99.202 236.612 98.556 237.233C97.9226 237.841 97.1753 238.316 96.314 238.658C95.4653 238.987 94.5343 239.152 93.521 239.152ZM93.521 237.461C94.2556 237.461 94.9333 237.334 95.554 237.081C96.1873 236.828 96.732 236.473 97.188 236.017C97.6566 235.548 98.0176 235.004 98.271 234.383C98.537 233.762 98.67 233.085 98.67 232.35C98.67 231.615 98.537 230.938 98.271 230.317C98.0176 229.696 97.6566 229.158 97.188 228.702C96.732 228.233 96.1873 227.872 95.554 227.619C94.9333 227.366 94.2556 227.239 93.521 227.239C92.7736 227.239 92.0833 227.366 91.45 227.619C90.8293 227.872 90.2846 228.233 89.816 228.702C89.3473 229.158 88.98 229.696 88.714 230.317C88.4606 230.938 88.334 231.615 88.334 232.35C88.334 233.085 88.4606 233.762 88.714 234.383C88.98 235.004 89.3473 235.548 89.816 236.017C90.2846 236.473 90.8293 236.828 91.45 237.081C92.0833 237.334 92.7736 237.461 93.521 237.461ZM103.474 239V225.7H108.661C109.826 225.7 110.821 225.884 111.644 226.251C112.467 226.618 113.101 227.15 113.544 227.847C113.987 228.544 114.209 229.373 114.209 230.336C114.209 231.299 113.987 232.128 113.544 232.825C113.101 233.509 112.467 234.035 111.644 234.402C110.821 234.769 109.826 234.953 108.661 234.953H104.519L105.374 234.079V239H103.474ZM112.366 239L108.984 234.174H111.017L114.437 239H112.366ZM105.374 234.269L104.519 233.338H108.604C109.82 233.338 110.738 233.078 111.359 232.559C111.992 232.027 112.309 231.286 112.309 230.336C112.309 229.386 111.992 228.651 111.359 228.132C110.738 227.613 109.82 227.353 108.604 227.353H104.519L105.374 226.403V234.269ZM117.279 239V225.7H123.245C124.777 225.7 125.955 226.01 126.779 226.631C127.602 227.239 128.014 228.075 128.014 229.139C128.014 229.861 127.849 230.469 127.52 230.963C127.203 231.457 126.772 231.837 126.228 232.103C125.683 232.369 125.094 232.502 124.461 232.502L124.803 231.932C125.563 231.932 126.234 232.065 126.817 232.331C127.399 232.597 127.862 232.99 128.204 233.509C128.546 234.016 128.717 234.649 128.717 235.409C128.717 236.549 128.286 237.436 127.425 238.069C126.576 238.69 125.309 239 123.625 239H117.279ZM119.179 237.461H123.549C124.6 237.461 125.404 237.284 125.962 236.929C126.519 236.574 126.798 236.017 126.798 235.257C126.798 234.484 126.519 233.921 125.962 233.566C125.404 233.211 124.6 233.034 123.549 233.034H119.008V231.495H123.074C124.036 231.495 124.784 231.318 125.316 230.963C125.848 230.608 126.114 230.076 126.114 229.367C126.114 228.658 125.848 228.126 125.316 227.771C124.784 227.416 124.036 227.239 123.074 227.239H119.179V237.461ZM131.659 239V225.7H133.559V239H131.659ZM137.54 239V225.7H143.145C144.564 225.7 145.812 225.979 146.888 226.536C147.978 227.093 148.82 227.872 149.415 228.873C150.023 229.874 150.327 231.033 150.327 232.35C150.327 233.667 150.023 234.826 149.415 235.827C148.82 236.828 147.978 237.607 146.888 238.164C145.812 238.721 144.564 239 143.145 239H137.54ZM139.44 237.347H143.031C144.133 237.347 145.083 237.138 145.881 236.72C146.692 236.302 147.319 235.719 147.762 234.972C148.206 234.212 148.427 233.338 148.427 232.35C148.427 231.349 148.206 230.475 147.762 229.728C147.319 228.981 146.692 228.398 145.881 227.98C145.083 227.562 144.133 227.353 143.031 227.353H139.44V237.347ZM154.967 231.438H161.807V233.053H154.967V231.438ZM155.138 237.347H162.89V239H153.238V225.7H162.624V227.353H155.138V237.347ZM165.966 239V225.7H167.524L176.321 236.625H175.504V225.7H177.404V239H175.846L167.049 228.075H167.866V239H165.966Z"
                fill="black" />
            <g id="ERROR403">
                <path
                    d="M28.583 173.9H47.483V180.2H35.513V191.855H45.026V198.155H35.513V211.7H47.483V218H28.583V173.9ZM51.4697 173.9H61.7387C65.3087 173.9 67.9127 174.74 69.5507 176.42C71.1887 178.058 72.0077 180.599 72.0077 184.043V186.752C72.0077 191.33 70.4957 194.228 67.4717 195.446V195.572C69.1517 196.076 70.3277 197.105 70.9997 198.659C71.7137 200.213 72.0707 202.292 72.0707 204.896V212.645C72.0707 213.905 72.1127 214.934 72.1967 215.732C72.2807 216.488 72.4907 217.244 72.8267 218H65.7707C65.5187 217.286 65.3507 216.614 65.2667 215.984C65.1827 215.354 65.1407 214.22 65.1407 212.582V204.518C65.1407 202.502 64.8047 201.095 64.1327 200.297C63.5027 199.499 62.3897 199.1 60.7937 199.1H58.3997V218H51.4697V173.9ZM60.9197 192.8C62.3057 192.8 63.3347 192.443 64.0067 191.729C64.7207 191.015 65.0777 189.818 65.0777 188.138V184.736C65.0777 183.14 64.7837 181.985 64.1957 181.271C63.6497 180.557 62.7677 180.2 61.5497 180.2H58.3997V192.8H60.9197ZM76.8789 173.9H87.1479C90.7179 173.9 93.3219 174.74 94.9599 176.42C96.5979 178.058 97.4169 180.599 97.4169 184.043V186.752C97.4169 191.33 95.9049 194.228 92.8809 195.446V195.572C94.5609 196.076 95.7369 197.105 96.4089 198.659C97.1229 200.213 97.4799 202.292 97.4799 204.896V212.645C97.4799 213.905 97.5219 214.934 97.6059 215.732C97.6899 216.488 97.8999 217.244 98.2359 218H91.1799C90.9279 217.286 90.7599 216.614 90.6759 215.984C90.5919 215.354 90.5499 214.22 90.5499 212.582V204.518C90.5499 202.502 90.2139 201.095 89.5419 200.297C88.9119 199.499 87.7989 199.1 86.2029 199.1H83.8089V218H76.8789V173.9ZM86.3289 192.8C87.7149 192.8 88.7439 192.443 89.4159 191.729C90.1299 191.015 90.4869 189.818 90.4869 188.138V184.736C90.4869 183.14 90.1929 181.985 89.6049 181.271C89.0589 180.557 88.1769 180.2 86.9589 180.2H83.8089V192.8H86.3289ZM112.305 218.63C108.903 218.63 106.299 217.664 104.493 215.732C102.687 213.8 101.784 211.07 101.784 207.542V184.358C101.784 180.83 102.687 178.1 104.493 176.168C106.299 174.236 108.903 173.27 112.305 173.27C115.707 173.27 118.311 174.236 120.117 176.168C121.923 178.1 122.826 180.83 122.826 184.358V207.542C122.826 211.07 121.923 213.8 120.117 215.732C118.311 217.664 115.707 218.63 112.305 218.63ZM112.305 212.33C114.699 212.33 115.896 210.881 115.896 207.983V183.917C115.896 181.019 114.699 179.57 112.305 179.57C109.911 179.57 108.714 181.019 108.714 183.917V207.983C108.714 210.881 109.911 212.33 112.305 212.33ZM127.513 173.9H137.782C141.352 173.9 143.956 174.74 145.594 176.42C147.232 178.058 148.051 180.599 148.051 184.043V186.752C148.051 191.33 146.539 194.228 143.515 195.446V195.572C145.195 196.076 146.371 197.105 147.043 198.659C147.757 200.213 148.114 202.292 148.114 204.896V212.645C148.114 213.905 148.156 214.934 148.24 215.732C148.324 216.488 148.534 217.244 148.87 218H141.814C141.562 217.286 141.394 216.614 141.31 215.984C141.226 215.354 141.184 214.22 141.184 212.582V204.518C141.184 202.502 140.848 201.095 140.176 200.297C139.546 199.499 138.433 199.1 136.837 199.1H134.443V218H127.513V173.9ZM136.963 192.8C138.349 192.8 139.378 192.443 140.05 191.729C140.764 191.015 141.121 189.818 141.121 188.138V184.736C141.121 183.14 140.827 181.985 140.239 181.271C139.693 180.557 138.811 180.2 137.593 180.2H134.443V192.8H136.963Z"
                    fill="#FF540A" />
                <path
                    d="M164.514 209.999H151.284V203.699L163.884 173.9H171.444V203.699H174.72V209.999H171.444V218H164.514V209.999ZM164.514 203.699V186.5H164.388L157.584 203.699H164.514ZM188.163 218.63C184.761 218.63 182.157 217.664 180.351 215.732C178.545 213.8 177.642 211.07 177.642 207.542V184.358C177.642 180.83 178.545 178.1 180.351 176.168C182.157 174.236 184.761 173.27 188.163 173.27C191.565 173.27 194.169 174.236 195.975 176.168C197.781 178.1 198.684 180.83 198.684 184.358V207.542C198.684 211.07 197.781 213.8 195.975 215.732C194.169 217.664 191.565 218.63 188.163 218.63ZM188.163 212.33C190.557 212.33 191.754 210.881 191.754 207.983V183.917C191.754 181.019 190.557 179.57 188.163 179.57C185.769 179.57 184.572 181.019 184.572 183.917V207.983C184.572 210.881 185.769 212.33 188.163 212.33ZM213.199 218.63C209.797 218.63 207.214 217.685 205.45 215.795C203.728 213.905 202.867 211.196 202.867 207.668V204.077H209.419V207.983C209.419 210.881 210.616 212.33 213.01 212.33C214.186 212.33 215.068 211.973 215.656 211.259C216.286 210.503 216.601 209.201 216.601 207.353V203.762C216.601 201.746 216.244 200.318 215.53 199.478C214.816 198.596 213.661 198.155 212.065 198.155H209.734V191.855H212.254C213.64 191.855 214.669 191.498 215.341 190.784C216.055 190.07 216.412 188.873 216.412 187.193V183.98C216.412 182.468 216.097 181.355 215.467 180.641C214.837 179.927 213.997 179.57 212.947 179.57C210.721 179.57 209.608 180.935 209.608 183.665V186.563H203.056V184.232C203.056 180.704 203.917 177.995 205.639 176.105C207.403 174.215 209.923 173.27 213.199 173.27C216.517 173.27 219.037 174.215 220.759 176.105C222.481 177.953 223.342 180.641 223.342 184.169V185.744C223.342 188.138 222.943 190.07 222.145 191.54C221.347 192.968 220.108 193.997 218.428 194.627V194.753C220.234 195.425 221.536 196.517 222.334 198.029C223.132 199.541 223.531 201.473 223.531 203.825V207.731C223.531 211.259 222.649 213.968 220.885 215.858C219.163 217.706 216.601 218.63 213.199 218.63Z"
                    fill="black" />
            </g>
        </g>
        <g id="ICON">
            <path id="Vector"
                d="M172.211 163.66H78.5259C68.2155 163.66 59.6897 154.63 59.6897 143.71V44.59C59.6897 33.67 68.2155 24.64 78.5259 24.64H172.112C182.422 24.64 190.948 33.565 190.948 44.59V143.71C191.047 154.735 182.522 163.66 172.211 163.66Z"
                stroke="black" stroke-width="10" stroke-miterlimit="10" />
            <path id="Vector_2"
                d="M29.1552 101.29C26.2802 101.29 24 98.77 24 95.83V62.335C24 59.29 26.3793 56.875 29.1552 56.875C32.0302 56.875 34.3103 59.395 34.3103 62.335V95.83C34.3103 98.875 32.0302 101.29 29.1552 101.29Z"
                fill="black" />
            <path id="Vector_3"
                d="M221.582 101.29C218.707 101.29 216.427 98.77 216.427 95.83V62.335C216.427 59.29 218.806 56.875 221.582 56.875C224.457 56.875 226.737 59.395 226.737 62.335V95.83C226.737 98.875 224.457 101.29 221.582 101.29Z"
                fill="black" />
            <path id="Vector_4"
                d="M207.108 100.87V27.685C207.108 16.345 198.284 7 187.578 7H63.1595C52.4526 7 43.6293 16.345 43.6293 27.685V100.87"
                stroke="black" stroke-width="10" stroke-miterlimit="10" stroke-linecap="round" />
            <g id="Group 1">
                <circle id="Ellipse 1" cx="125.5" cy="94.5" r="42.5" stroke="#FF540A" stroke-width="10" />
                <path id="Line 6" d="M96.9998 122.494L153.494 66" stroke="#FF540A" stroke-width="10"
                    stroke-linecap="round" />
            </g>
        </g>
    </g>
</svg>