<svg width="250" height="250" viewBox="0 0 250 250" fill="none" xmlns="http://www.w3.org/2000/svg">
    <g id="Error-401">
        <g id="TEXT">
            <path id="NOT-AUTHORIZED"
                d="M38.3934 239V225.7H39.9514L48.7484 236.625H47.9314V225.7H49.8314V239H48.2734L39.4764 228.075H40.2934V239H38.3934ZM59.8164 239.152C58.803 239.152 57.8594 238.981 56.9854 238.639C56.124 238.297 55.3767 237.822 54.7434 237.214C54.11 236.593 53.616 235.871 53.2614 235.048C52.9067 234.225 52.7294 233.325 52.7294 232.35C52.7294 231.375 52.9067 230.475 53.2614 229.652C53.616 228.829 54.11 228.113 54.7434 227.505C55.3767 226.884 56.124 226.403 56.9854 226.061C57.8467 225.719 58.7904 225.548 59.8164 225.548C60.8297 225.548 61.7607 225.719 62.6094 226.061C63.4707 226.39 64.2181 226.865 64.8514 227.486C65.4974 228.094 65.9914 228.81 66.3334 229.633C66.6881 230.456 66.8654 231.362 66.8654 232.35C66.8654 233.338 66.6881 234.244 66.3334 235.067C65.9914 235.89 65.4974 236.612 64.8514 237.233C64.2181 237.841 63.4707 238.316 62.6094 238.658C61.7607 238.987 60.8297 239.152 59.8164 239.152ZM59.8164 237.461C60.5511 237.461 61.2287 237.334 61.8494 237.081C62.4827 236.828 63.0274 236.473 63.4834 236.017C63.952 235.548 64.313 235.004 64.5664 234.383C64.8324 233.762 64.9654 233.085 64.9654 232.35C64.9654 231.615 64.8324 230.938 64.5664 230.317C64.313 229.696 63.952 229.158 63.4834 228.702C63.0274 228.233 62.4827 227.872 61.8494 227.619C61.2287 227.366 60.5511 227.239 59.8164 227.239C59.069 227.239 58.3787 227.366 57.7454 227.619C57.1247 227.872 56.58 228.233 56.1114 228.702C55.6427 229.158 55.2754 229.696 55.0094 230.317C54.756 230.938 54.6294 231.615 54.6294 232.35C54.6294 233.085 54.756 233.762 55.0094 234.383C55.2754 235.004 55.6427 235.548 56.1114 236.017C56.58 236.473 57.1247 236.828 57.7454 237.081C58.3787 237.334 59.069 237.461 59.8164 237.461ZM72.2249 239V227.353H67.6649V225.7H78.6659V227.353H74.1059V239H72.2249ZM79.1924 234.573V232.996H84.3034V234.573H79.1924ZM85.0298 239L91.0528 225.7H92.9338L98.9758 239H96.9808L91.6038 226.764H92.3638L86.9868 239H85.0298ZM87.5948 235.675L88.1078 234.155H95.5938L96.1448 235.675H87.5948ZM106.192 239.152C104.444 239.152 103.069 238.652 102.069 237.651C101.068 236.65 100.568 235.187 100.568 233.262V225.7H102.468V233.186C102.468 234.668 102.791 235.751 103.437 236.435C104.095 237.119 105.02 237.461 106.211 237.461C107.414 237.461 108.339 237.119 108.985 236.435C109.643 235.751 109.973 234.668 109.973 233.186V225.7H111.816V233.262C111.816 235.187 111.315 236.65 110.315 237.651C109.327 238.652 107.952 239.152 106.192 239.152ZM118.111 239V227.353H113.551V225.7H124.552V227.353H119.992V239H118.111ZM136.159 225.7H138.059V239H136.159V225.7ZM128.521 239H126.621V225.7H128.521V239ZM136.33 233.072H128.331V231.419H136.33V233.072ZM148.044 239.152C147.031 239.152 146.087 238.981 145.213 238.639C144.352 238.297 143.604 237.822 142.971 237.214C142.338 236.593 141.844 235.871 141.489 235.048C141.134 234.225 140.957 233.325 140.957 232.35C140.957 231.375 141.134 230.475 141.489 229.652C141.844 228.829 142.338 228.113 142.971 227.505C143.604 226.884 144.352 226.403 145.213 226.061C146.074 225.719 147.018 225.548 148.044 225.548C149.057 225.548 149.988 225.719 150.837 226.061C151.698 226.39 152.446 226.865 153.079 227.486C153.725 228.094 154.219 228.81 154.561 229.633C154.916 230.456 155.093 231.362 155.093 232.35C155.093 233.338 154.916 234.244 154.561 235.067C154.219 235.89 153.725 236.612 153.079 237.233C152.446 237.841 151.698 238.316 150.837 238.658C149.988 238.987 149.057 239.152 148.044 239.152ZM148.044 237.461C148.779 237.461 149.456 237.334 150.077 237.081C150.71 236.828 151.255 236.473 151.711 236.017C152.18 235.548 152.541 235.004 152.794 234.383C153.06 233.762 153.193 233.085 153.193 232.35C153.193 231.615 153.06 230.938 152.794 230.317C152.541 229.696 152.18 229.158 151.711 228.702C151.255 228.233 150.71 227.872 150.077 227.619C149.456 227.366 148.779 227.239 148.044 227.239C147.297 227.239 146.606 227.366 145.973 227.619C145.352 227.872 144.808 228.233 144.339 228.702C143.87 229.158 143.503 229.696 143.237 230.317C142.984 230.938 142.857 231.615 142.857 232.35C142.857 233.085 142.984 233.762 143.237 234.383C143.503 235.004 143.87 235.548 144.339 236.017C144.808 236.473 145.352 236.828 145.973 237.081C146.606 237.334 147.297 237.461 148.044 237.461ZM157.997 239V225.7H163.184C164.349 225.7 165.344 225.884 166.167 226.251C166.99 226.618 167.624 227.15 168.067 227.847C168.51 228.544 168.732 229.373 168.732 230.336C168.732 231.299 168.51 232.128 168.067 232.825C167.624 233.509 166.99 234.035 166.167 234.402C165.344 234.769 164.349 234.953 163.184 234.953H159.042L159.897 234.079V239H157.997ZM166.889 239L163.507 234.174H165.54L168.96 239H166.889ZM159.897 234.269L159.042 233.338H163.127C164.343 233.338 165.261 233.078 165.882 232.559C166.515 232.027 166.832 231.286 166.832 230.336C166.832 229.386 166.515 228.651 165.882 228.132C165.261 227.613 164.343 227.353 163.127 227.353H159.042L159.897 226.403V234.269ZM171.802 239V225.7H173.702V239H171.802ZM176.505 239V237.708L185.454 226.612L185.663 227.353H176.638V225.7H187.373V226.992L178.462 238.088L178.234 237.347H187.62V239H176.505ZM191.9 231.438H198.74V233.053H191.9V231.438ZM192.071 237.347H199.823V239H190.171V225.7H199.557V227.353H192.071V237.347ZM202.899 239V225.7H208.504C209.923 225.7 211.171 225.979 212.247 226.536C213.337 227.093 214.179 227.872 214.774 228.873C215.382 229.874 215.686 231.033 215.686 232.35C215.686 233.667 215.382 234.826 214.774 235.827C214.179 236.828 213.337 237.607 212.247 238.164C211.171 238.721 209.923 239 208.504 239H202.899ZM204.799 237.347H208.39C209.492 237.347 210.442 237.138 211.24 236.72C212.051 236.302 212.678 235.719 213.121 234.972C213.565 234.212 213.786 233.338 213.786 232.35C213.786 231.349 213.565 230.475 213.121 229.728C212.678 228.981 212.051 228.398 211.24 227.98C210.442 227.562 209.492 227.353 208.39 227.353H204.799V237.347Z"
                fill="black" />
            <g id="ERROR401">
                <path
                    d="M28.583 173.9H47.483V180.2H35.513V191.855H45.026V198.155H35.513V211.7H47.483V218H28.583V173.9ZM51.4697 173.9H61.7387C65.3087 173.9 67.9127 174.74 69.5507 176.42C71.1887 178.058 72.0077 180.599 72.0077 184.043V186.752C72.0077 191.33 70.4957 194.228 67.4717 195.446V195.572C69.1517 196.076 70.3277 197.105 70.9997 198.659C71.7137 200.213 72.0707 202.292 72.0707 204.896V212.645C72.0707 213.905 72.1127 214.934 72.1967 215.732C72.2807 216.488 72.4907 217.244 72.8267 218H65.7707C65.5187 217.286 65.3507 216.614 65.2667 215.984C65.1827 215.354 65.1407 214.22 65.1407 212.582V204.518C65.1407 202.502 64.8047 201.095 64.1327 200.297C63.5027 199.499 62.3897 199.1 60.7937 199.1H58.3997V218H51.4697V173.9ZM60.9197 192.8C62.3057 192.8 63.3347 192.443 64.0067 191.729C64.7207 191.015 65.0777 189.818 65.0777 188.138V184.736C65.0777 183.14 64.7837 181.985 64.1957 181.271C63.6497 180.557 62.7677 180.2 61.5497 180.2H58.3997V192.8H60.9197ZM76.8789 173.9H87.1479C90.7179 173.9 93.3219 174.74 94.9599 176.42C96.5979 178.058 97.4169 180.599 97.4169 184.043V186.752C97.4169 191.33 95.9049 194.228 92.8809 195.446V195.572C94.5609 196.076 95.7369 197.105 96.4089 198.659C97.1229 200.213 97.4799 202.292 97.4799 204.896V212.645C97.4799 213.905 97.5219 214.934 97.6059 215.732C97.6899 216.488 97.8999 217.244 98.2359 218H91.1799C90.9279 217.286 90.7599 216.614 90.6759 215.984C90.5919 215.354 90.5499 214.22 90.5499 212.582V204.518C90.5499 202.502 90.2139 201.095 89.5419 200.297C88.9119 199.499 87.7989 199.1 86.2029 199.1H83.8089V218H76.8789V173.9ZM86.3289 192.8C87.7149 192.8 88.7439 192.443 89.4159 191.729C90.1299 191.015 90.4869 189.818 90.4869 188.138V184.736C90.4869 183.14 90.1929 181.985 89.6049 181.271C89.0589 180.557 88.1769 180.2 86.9589 180.2H83.8089V192.8H86.3289ZM112.305 218.63C108.903 218.63 106.299 217.664 104.493 215.732C102.687 213.8 101.784 211.07 101.784 207.542V184.358C101.784 180.83 102.687 178.1 104.493 176.168C106.299 174.236 108.903 173.27 112.305 173.27C115.707 173.27 118.311 174.236 120.117 176.168C121.923 178.1 122.826 180.83 122.826 184.358V207.542C122.826 211.07 121.923 213.8 120.117 215.732C118.311 217.664 115.707 218.63 112.305 218.63ZM112.305 212.33C114.699 212.33 115.896 210.881 115.896 207.983V183.917C115.896 181.019 114.699 179.57 112.305 179.57C109.911 179.57 108.714 181.019 108.714 183.917V207.983C108.714 210.881 109.911 212.33 112.305 212.33ZM127.513 173.9H137.782C141.352 173.9 143.956 174.74 145.594 176.42C147.232 178.058 148.051 180.599 148.051 184.043V186.752C148.051 191.33 146.539 194.228 143.515 195.446V195.572C145.195 196.076 146.371 197.105 147.043 198.659C147.757 200.213 148.114 202.292 148.114 204.896V212.645C148.114 213.905 148.156 214.934 148.24 215.732C148.324 216.488 148.534 217.244 148.87 218H141.814C141.562 217.286 141.394 216.614 141.31 215.984C141.226 215.354 141.184 214.22 141.184 212.582V204.518C141.184 202.502 140.848 201.095 140.176 200.297C139.546 199.499 138.433 199.1 136.837 199.1H134.443V218H127.513V173.9ZM136.963 192.8C138.349 192.8 139.378 192.443 140.05 191.729C140.764 191.015 141.121 189.818 141.121 188.138V184.736C141.121 183.14 140.827 181.985 140.239 181.271C139.693 180.557 138.811 180.2 137.593 180.2H134.443V192.8H136.963Z"
                    fill="#FF540A" />
                <path
                    d="M164.514 209.999H151.284V203.699L163.884 173.9H171.444V203.699H174.72V209.999H171.444V218H164.514V209.999ZM164.514 203.699V186.5H164.388L157.584 203.699H164.514ZM188.163 218.63C184.761 218.63 182.157 217.664 180.351 215.732C178.545 213.8 177.642 211.07 177.642 207.542V184.358C177.642 180.83 178.545 178.1 180.351 176.168C182.157 174.236 184.761 173.27 188.163 173.27C191.565 173.27 194.169 174.236 195.975 176.168C197.781 178.1 198.684 180.83 198.684 184.358V207.542C198.684 211.07 197.781 213.8 195.975 215.732C194.169 217.664 191.565 218.63 188.163 218.63ZM188.163 212.33C190.557 212.33 191.754 210.881 191.754 207.983V183.917C191.754 181.019 190.557 179.57 188.163 179.57C185.769 179.57 184.572 181.019 184.572 183.917V207.983C184.572 210.881 185.769 212.33 188.163 212.33ZM213.073 184.358H205.828V179.444C207.802 179.444 209.377 179.276 210.553 178.94C211.771 178.604 212.737 178.058 213.451 177.302C214.165 176.504 214.795 175.37 215.341 173.9H220.003V218H213.073V184.358Z"
                    fill="black" />
            </g>
        </g>
        <g id="ICON">
            <path id="Vector"
                d="M172.211 163.66H78.5259C68.2155 163.66 59.6897 154.63 59.6897 143.71V44.59C59.6897 33.67 68.2155 24.64 78.5259 24.64H172.112C182.422 24.64 190.948 33.565 190.948 44.59V143.71C191.047 154.735 182.522 163.66 172.211 163.66Z"
                stroke="black" stroke-width="10" stroke-miterlimit="10" />
            <path id="Vector_2"
                d="M29.1552 101.29C26.2802 101.29 24 98.77 24 95.83V62.335C24 59.29 26.3793 56.875 29.1552 56.875C32.0302 56.875 34.3103 59.395 34.3103 62.335V95.83C34.3103 98.875 32.0302 101.29 29.1552 101.29Z"
                fill="black" />
            <path id="Vector_3"
                d="M221.582 101.29C218.707 101.29 216.427 98.77 216.427 95.83V62.335C216.427 59.29 218.806 56.875 221.582 56.875C224.457 56.875 226.737 59.395 226.737 62.335V95.83C226.737 98.875 224.457 101.29 221.582 101.29Z"
                fill="black" />
            <path id="Vector_4"
                d="M207.108 100.87V27.685C207.108 16.345 198.285 7 187.578 7H63.1595C52.4526 7 43.6293 16.345 43.6293 27.685V100.87"
                stroke="black" stroke-width="10" stroke-miterlimit="10" stroke-linecap="round" />
            <g id="Group 1">
                <circle id="Ellipse 1" cx="125.5" cy="94.5" r="42.5" stroke="#FF540A" stroke-width="10" />
                <path id="Line 6" d="M96.9998 122.494L153.494 66" stroke="#FF540A" stroke-width="10"
                    stroke-linecap="round" />
            </g>
        </g>
    </g>
</svg>