<svg width="250" height="250" viewBox="0 0 250 250" fill="none" xmlns="http://www.w3.org/2000/svg">
    <g id="Error-503">
        <g id="TEXT">
            <path id="SERVICE=NOT=AVAILABLE"
                d="M35.8475 235.112C35.1008 235.112 34.3868 235 33.7055 234.776C33.0242 234.543 32.4875 234.244 32.0955 233.88L32.6135 232.788C32.9868 233.115 33.4628 233.385 34.0415 233.6C34.6202 233.815 35.2222 233.922 35.8475 233.922C36.4168 233.922 36.8788 233.857 37.2335 233.726C37.5882 233.595 37.8495 233.418 38.0175 233.194C38.1855 232.961 38.2695 232.699 38.2695 232.41C38.2695 232.074 38.1575 231.803 37.9335 231.598C37.7188 231.393 37.4342 231.229 37.0795 231.108C36.7342 230.977 36.3515 230.865 35.9315 230.772C35.5115 230.679 35.0868 230.571 34.6575 230.45C34.2375 230.319 33.8502 230.156 33.4955 229.96C33.1502 229.764 32.8702 229.503 32.6555 229.176C32.4408 228.84 32.3335 228.411 32.3335 227.888C32.3335 227.384 32.4642 226.922 32.7255 226.502C32.9962 226.073 33.4068 225.732 33.9575 225.48C34.5175 225.219 35.2268 225.088 36.0855 225.088C36.6548 225.088 37.2195 225.163 37.7795 225.312C38.3395 225.461 38.8248 225.676 39.2355 225.956L38.7735 227.076C38.3535 226.796 37.9102 226.595 37.4435 226.474C36.9768 226.343 36.5242 226.278 36.0855 226.278C35.5348 226.278 35.0822 226.348 34.7275 226.488C34.3728 226.628 34.1115 226.815 33.9435 227.048C33.7848 227.281 33.7055 227.543 33.7055 227.832C33.7055 228.177 33.8128 228.453 34.0275 228.658C34.2515 228.863 34.5362 229.027 34.8815 229.148C35.2362 229.269 35.6235 229.381 36.0435 229.484C36.4635 229.577 36.8835 229.685 37.3035 229.806C37.7328 229.927 38.1202 230.086 38.4655 230.282C38.8202 230.478 39.1048 230.739 39.3195 231.066C39.5342 231.393 39.6415 231.813 39.6415 232.326C39.6415 232.821 39.5062 233.283 39.2355 233.712C38.9648 234.132 38.5448 234.473 37.9755 234.734C37.4155 234.986 36.7062 235.112 35.8475 235.112ZM42.9608 229.428H48.0008V230.618H42.9608V229.428ZM43.0868 233.782H48.7988V235H41.6868V225.2H48.6028V226.418H43.0868V233.782ZM51.0657 235V225.2H54.8877C55.7464 225.2 56.479 225.335 57.0857 225.606C57.6924 225.877 58.159 226.269 58.4857 226.782C58.8124 227.295 58.9757 227.907 58.9757 228.616C58.9757 229.325 58.8124 229.937 58.4857 230.45C58.159 230.954 57.6924 231.341 57.0857 231.612C56.479 231.883 55.7464 232.018 54.8877 232.018H51.8357L52.4657 231.374V235H51.0657ZM57.6177 235L55.1257 231.444H56.6237L59.1437 235H57.6177ZM52.4657 231.514L51.8357 230.828H54.8457C55.7417 230.828 56.4184 230.637 56.8757 230.254C57.3424 229.862 57.5757 229.316 57.5757 228.616C57.5757 227.916 57.3424 227.375 56.8757 226.992C56.4184 226.609 55.7417 226.418 54.8457 226.418H51.8357L52.4657 225.718V231.514ZM64.0656 235L59.7536 225.2H61.2656L65.2276 234.244H64.3596L68.3496 225.2H69.7496L65.4516 235H64.0656ZM70.9993 235V225.2H72.3993V235H70.9993ZM79.7153 235.112C78.9686 235.112 78.2779 234.991 77.6433 234.748C77.0179 234.496 76.4719 234.146 76.0053 233.698C75.5479 233.241 75.1886 232.709 74.9273 232.102C74.6659 231.495 74.5353 230.828 74.5353 230.1C74.5353 229.372 74.6659 228.705 74.9273 228.098C75.1886 227.491 75.5526 226.964 76.0193 226.516C76.4859 226.059 77.0319 225.709 77.6573 225.466C78.2919 225.214 78.9826 225.088 79.7293 225.088C80.4853 225.088 81.1806 225.219 81.8153 225.48C82.4593 225.732 83.0053 226.11 83.4533 226.614L82.5433 227.496C82.1699 227.104 81.7499 226.815 81.2833 226.628C80.8166 226.432 80.3173 226.334 79.7853 226.334C79.2346 226.334 78.7213 226.427 78.2453 226.614C77.7786 226.801 77.3726 227.062 77.0273 227.398C76.6819 227.734 76.4113 228.135 76.2153 228.602C76.0286 229.059 75.9353 229.559 75.9353 230.1C75.9353 230.641 76.0286 231.145 76.2153 231.612C76.4113 232.069 76.6819 232.466 77.0273 232.802C77.3726 233.138 77.7786 233.399 78.2453 233.586C78.7213 233.773 79.2346 233.866 79.7853 233.866C80.3173 233.866 80.8166 233.773 81.2833 233.586C81.7499 233.39 82.1699 233.091 82.5433 232.69L83.4533 233.572C83.0053 234.076 82.4593 234.459 81.8153 234.72C81.1806 234.981 80.4806 235.112 79.7153 235.112ZM86.7245 229.428H91.7645V230.618H86.7245V229.428ZM86.8505 233.782H92.5625V235H85.4505V225.2H92.3665V226.418H86.8505V233.782ZM94.2974 228.994V227.888H100.569V228.994H94.2974ZM94.2974 232.312V231.206H100.569V232.312H94.2974ZM102.978 235V225.2H104.126L110.608 233.25H110.006V225.2H111.406V235H110.258L103.776 226.95H104.378V235H102.978ZM118.763 235.112C118.016 235.112 117.321 234.986 116.677 234.734C116.042 234.482 115.492 234.132 115.025 233.684C114.558 233.227 114.194 232.695 113.933 232.088C113.672 231.481 113.541 230.819 113.541 230.1C113.541 229.381 113.672 228.719 113.933 228.112C114.194 227.505 114.558 226.978 115.025 226.53C115.492 226.073 116.042 225.718 116.677 225.466C117.312 225.214 118.007 225.088 118.763 225.088C119.51 225.088 120.196 225.214 120.821 225.466C121.456 225.709 122.006 226.059 122.473 226.516C122.949 226.964 123.313 227.491 123.565 228.098C123.826 228.705 123.957 229.372 123.957 230.1C123.957 230.828 123.826 231.495 123.565 232.102C123.313 232.709 122.949 233.241 122.473 233.698C122.006 234.146 121.456 234.496 120.821 234.748C120.196 234.991 119.51 235.112 118.763 235.112ZM118.763 233.866C119.304 233.866 119.804 233.773 120.261 233.586C120.728 233.399 121.129 233.138 121.465 232.802C121.81 232.457 122.076 232.055 122.263 231.598C122.459 231.141 122.557 230.641 122.557 230.1C122.557 229.559 122.459 229.059 122.263 228.602C122.076 228.145 121.81 227.748 121.465 227.412C121.129 227.067 120.728 226.801 120.261 226.614C119.804 226.427 119.304 226.334 118.763 226.334C118.212 226.334 117.704 226.427 117.237 226.614C116.78 226.801 116.378 227.067 116.033 227.412C115.688 227.748 115.417 228.145 115.221 228.602C115.034 229.059 114.941 229.559 114.941 230.1C114.941 230.641 115.034 231.141 115.221 231.598C115.417 232.055 115.688 232.457 116.033 232.802C116.378 233.138 116.78 233.399 117.237 233.586C117.704 233.773 118.212 233.866 118.763 233.866ZM127.906 235V226.418H124.546V225.2H132.652V226.418H129.292V235H127.906ZM133.645 228.994V227.888H139.917V228.994H133.645ZM133.645 232.312V231.206H139.917V232.312H133.645ZM140.841 235L145.279 225.2H146.665L151.117 235H149.647L145.685 225.984H146.245L142.283 235H140.841ZM142.731 232.55L143.109 231.43H148.625L149.031 232.55H142.731ZM154.888 235L150.576 225.2H152.088L156.05 234.244H155.182L159.172 225.2H160.572L156.274 235H154.888ZM160.023 235L164.461 225.2H165.847L170.299 235H168.829L164.867 225.984H165.427L161.465 235H160.023ZM161.913 232.55L162.291 231.43H167.807L168.213 232.55H161.913ZM171.761 235V225.2H173.161V235H171.761ZM176.095 235V225.2H177.495V233.782H182.801V235H176.095ZM182.923 235L187.362 225.2H188.748L193.2 235H191.73L187.768 225.984H188.328L184.366 235H182.923ZM184.814 232.55L185.192 231.43H190.708L191.114 232.55H184.814ZM194.661 235V225.2H199.057C200.187 225.2 201.055 225.429 201.661 225.886C202.268 226.334 202.571 226.95 202.571 227.734C202.571 228.266 202.45 228.714 202.207 229.078C201.974 229.442 201.657 229.722 201.255 229.918C200.854 230.114 200.42 230.212 199.953 230.212L200.205 229.792C200.765 229.792 201.26 229.89 201.689 230.086C202.119 230.282 202.459 230.571 202.711 230.954C202.963 231.327 203.089 231.794 203.089 232.354C203.089 233.194 202.772 233.847 202.137 234.314C201.512 234.771 200.579 235 199.337 235H194.661ZM196.061 233.866H199.281C200.056 233.866 200.649 233.735 201.059 233.474C201.47 233.213 201.675 232.802 201.675 232.242C201.675 231.673 201.47 231.257 201.059 230.996C200.649 230.735 200.056 230.604 199.281 230.604H195.935V229.47H198.931C199.641 229.47 200.191 229.339 200.583 229.078C200.975 228.817 201.171 228.425 201.171 227.902C201.171 227.379 200.975 226.987 200.583 226.726C200.191 226.465 199.641 226.334 198.931 226.334H196.061V233.866ZM205.257 235V225.2H206.657V233.782H211.963V235H205.257ZM214.844 229.428H219.884V230.618H214.844V229.428ZM214.97 233.782H220.682V235H213.57V225.2H220.486V226.418H214.97V233.782Z"
                fill="black" />
            <g id="ERROR503">
                <path
                    d="M28.583 173.9H47.483V180.2H35.513V191.855H45.026V198.155H35.513V211.7H47.483V218H28.583V173.9ZM51.4697 173.9H61.7387C65.3087 173.9 67.9127 174.74 69.5507 176.42C71.1887 178.058 72.0077 180.599 72.0077 184.043V186.752C72.0077 191.33 70.4957 194.228 67.4717 195.446V195.572C69.1517 196.076 70.3277 197.105 70.9997 198.659C71.7137 200.213 72.0707 202.292 72.0707 204.896V212.645C72.0707 213.905 72.1127 214.934 72.1967 215.732C72.2807 216.488 72.4907 217.244 72.8267 218H65.7707C65.5187 217.286 65.3507 216.614 65.2667 215.984C65.1827 215.354 65.1407 214.22 65.1407 212.582V204.518C65.1407 202.502 64.8047 201.095 64.1327 200.297C63.5027 199.499 62.3897 199.1 60.7937 199.1H58.3997V218H51.4697V173.9ZM60.9197 192.8C62.3057 192.8 63.3347 192.443 64.0067 191.729C64.7207 191.015 65.0777 189.818 65.0777 188.138V184.736C65.0777 183.14 64.7837 181.985 64.1957 181.271C63.6497 180.557 62.7677 180.2 61.5497 180.2H58.3997V192.8H60.9197ZM76.8789 173.9H87.1479C90.7179 173.9 93.3219 174.74 94.9599 176.42C96.5979 178.058 97.4169 180.599 97.4169 184.043V186.752C97.4169 191.33 95.9049 194.228 92.8809 195.446V195.572C94.5609 196.076 95.7369 197.105 96.4089 198.659C97.1229 200.213 97.4799 202.292 97.4799 204.896V212.645C97.4799 213.905 97.5219 214.934 97.6059 215.732C97.6899 216.488 97.8999 217.244 98.2359 218H91.1799C90.9279 217.286 90.7599 216.614 90.6759 215.984C90.5919 215.354 90.5499 214.22 90.5499 212.582V204.518C90.5499 202.502 90.2139 201.095 89.5419 200.297C88.9119 199.499 87.7989 199.1 86.2029 199.1H83.8089V218H76.8789V173.9ZM86.3289 192.8C87.7149 192.8 88.7439 192.443 89.4159 191.729C90.1299 191.015 90.4869 189.818 90.4869 188.138V184.736C90.4869 183.14 90.1929 181.985 89.6049 181.271C89.0589 180.557 88.1769 180.2 86.9589 180.2H83.8089V192.8H86.3289ZM112.305 218.63C108.903 218.63 106.299 217.664 104.493 215.732C102.687 213.8 101.784 211.07 101.784 207.542V184.358C101.784 180.83 102.687 178.1 104.493 176.168C106.299 174.236 108.903 173.27 112.305 173.27C115.707 173.27 118.311 174.236 120.117 176.168C121.923 178.1 122.826 180.83 122.826 184.358V207.542C122.826 211.07 121.923 213.8 120.117 215.732C118.311 217.664 115.707 218.63 112.305 218.63ZM112.305 212.33C114.699 212.33 115.896 210.881 115.896 207.983V183.917C115.896 181.019 114.699 179.57 112.305 179.57C109.911 179.57 108.714 181.019 108.714 183.917V207.983C108.714 210.881 109.911 212.33 112.305 212.33ZM127.513 173.9H137.782C141.352 173.9 143.956 174.74 145.594 176.42C147.232 178.058 148.051 180.599 148.051 184.043V186.752C148.051 191.33 146.539 194.228 143.515 195.446V195.572C145.195 196.076 146.371 197.105 147.043 198.659C147.757 200.213 148.114 202.292 148.114 204.896V212.645C148.114 213.905 148.156 214.934 148.24 215.732C148.324 216.488 148.534 217.244 148.87 218H141.814C141.562 217.286 141.394 216.614 141.31 215.984C141.226 215.354 141.184 214.22 141.184 212.582V204.518C141.184 202.502 140.848 201.095 140.176 200.297C139.546 199.499 138.433 199.1 136.837 199.1H134.443V218H127.513V173.9ZM136.963 192.8C138.349 192.8 139.378 192.443 140.05 191.729C140.764 191.015 141.121 189.818 141.121 188.138V184.736C141.121 183.14 140.827 181.985 140.239 181.271C139.693 180.557 138.811 180.2 137.593 180.2H134.443V192.8H136.963Z"
                    fill="#FF540A" />
                <path
                    d="M163.065 218.63C159.705 218.63 157.143 217.685 155.379 215.795C153.615 213.863 152.733 211.112 152.733 207.542V204.077H159.285V208.046C159.285 210.902 160.482 212.33 162.876 212.33C165.27 212.33 166.467 210.902 166.467 208.046V198.155C166.467 195.257 165.27 193.808 162.876 193.808C160.482 193.808 159.285 195.257 159.285 198.155V198.533H152.733L153.993 173.9H172.263V180.2H160.167L159.6 190.721H159.726C161.028 188.579 163.023 187.508 165.711 187.508C168.231 187.508 170.142 188.369 171.444 190.091C172.746 191.813 173.397 194.312 173.397 197.588V207.542C173.397 211.112 172.515 213.863 170.751 215.795C168.987 217.685 166.425 218.63 163.065 218.63ZM188.163 218.63C184.761 218.63 182.157 217.664 180.351 215.732C178.545 213.8 177.642 211.07 177.642 207.542V184.358C177.642 180.83 178.545 178.1 180.351 176.168C182.157 174.236 184.761 173.27 188.163 173.27C191.565 173.27 194.169 174.236 195.975 176.168C197.781 178.1 198.684 180.83 198.684 184.358V207.542C198.684 211.07 197.781 213.8 195.975 215.732C194.169 217.664 191.565 218.63 188.163 218.63ZM188.163 212.33C190.557 212.33 191.754 210.881 191.754 207.983V183.917C191.754 181.019 190.557 179.57 188.163 179.57C185.769 179.57 184.572 181.019 184.572 183.917V207.983C184.572 210.881 185.769 212.33 188.163 212.33ZM213.199 218.63C209.797 218.63 207.214 217.685 205.45 215.795C203.728 213.905 202.867 211.196 202.867 207.668V204.077H209.419V207.983C209.419 210.881 210.616 212.33 213.01 212.33C214.186 212.33 215.068 211.973 215.656 211.259C216.286 210.503 216.601 209.201 216.601 207.353V203.762C216.601 201.746 216.244 200.318 215.53 199.478C214.816 198.596 213.661 198.155 212.065 198.155H209.734V191.855H212.254C213.64 191.855 214.669 191.498 215.341 190.784C216.055 190.07 216.412 188.873 216.412 187.193V183.98C216.412 182.468 216.097 181.355 215.467 180.641C214.837 179.927 213.997 179.57 212.947 179.57C210.721 179.57 209.608 180.935 209.608 183.665V186.563H203.056V184.232C203.056 180.704 203.917 177.995 205.639 176.105C207.403 174.215 209.923 173.27 213.199 173.27C216.517 173.27 219.037 174.215 220.759 176.105C222.481 177.953 223.342 180.641 223.342 184.169V185.744C223.342 188.138 222.943 190.07 222.145 191.54C221.347 192.968 220.108 193.997 218.428 194.627V194.753C220.234 195.425 221.536 196.517 222.334 198.029C223.132 199.541 223.531 201.473 223.531 203.825V207.731C223.531 211.259 222.649 213.968 220.885 215.858C219.163 217.706 216.601 218.63 213.199 218.63Z"
                    fill="black" />
            </g>
        </g>
        <g id="ICON">
            <path id="Vector"
                d="M172.211 163.66H78.5259C68.2155 163.66 59.6897 154.63 59.6897 143.71V44.59C59.6897 33.67 68.2155 24.64 78.5259 24.64H172.112C182.422 24.64 190.948 33.565 190.948 44.59V143.71C191.047 154.735 182.522 163.66 172.211 163.66Z"
                stroke="black" stroke-width="10" stroke-miterlimit="10" />
            <path id="Vector_2"
                d="M29.1552 101.29C26.2802 101.29 24 98.77 24 95.83V62.335C24 59.29 26.3793 56.875 29.1552 56.875C32.0302 56.875 34.3103 59.395 34.3103 62.335V95.83C34.3103 98.875 32.0302 101.29 29.1552 101.29Z"
                fill="black" />
            <path id="Vector_3"
                d="M221.582 101.29C218.707 101.29 216.427 98.77 216.427 95.83V62.335C216.427 59.29 218.806 56.875 221.582 56.875C224.457 56.875 226.737 59.395 226.737 62.335V95.83C226.737 98.875 224.457 101.29 221.582 101.29Z"
                fill="black" />
            <path id="Vector_4"
                d="M207.108 100.87V27.685C207.108 16.345 198.284 7 187.578 7H63.1595C52.4526 7 43.6293 16.345 43.6293 27.685V100.87"
                stroke="black" stroke-width="10" stroke-miterlimit="10" stroke-linecap="round" />
            <g id="Group 1">
                <circle id="Ellipse 1" cx="125.5" cy="94.5" r="42.5" stroke="#FF540A" stroke-width="10" />
                <path id="Line 6" d="M96.9998 122.494L153.494 66" stroke="#FF540A" stroke-width="10"
                    stroke-linecap="round" />
            </g>
        </g>
    </g>
</svg>