<svg width="250" height="250" viewBox="0 0 250 250" fill="none" xmlns="http://www.w3.org/2000/svg">
    <g id="Error-404">
        <g id="TEXT">
            <path id="NOT-FOUND"
                d="M64.995 245V231.7H66.553L75.35 242.625H74.533V231.7H76.433V245H74.875L66.078 234.075H66.895V245H64.995ZM86.4179 245.152C85.4046 245.152 84.4609 244.981 83.5869 244.639C82.7256 244.297 81.9783 243.822 81.3449 243.214C80.7116 242.593 80.2176 241.871 79.8629 241.048C79.5083 240.225 79.3309 239.325 79.3309 238.35C79.3309 237.375 79.5083 236.475 79.8629 235.652C80.2176 234.829 80.7116 234.113 81.3449 233.505C81.9783 232.884 82.7256 232.403 83.5869 232.061C84.4483 231.719 85.3919 231.548 86.4179 231.548C87.4313 231.548 88.3623 231.719 89.2109 232.061C90.0723 232.39 90.8196 232.865 91.4529 233.486C92.0989 234.094 92.5929 234.81 92.9349 235.633C93.2896 236.456 93.4669 237.362 93.4669 238.35C93.4669 239.338 93.2896 240.244 92.9349 241.067C92.5929 241.89 92.0989 242.612 91.4529 243.233C90.8196 243.841 90.0723 244.316 89.2109 244.658C88.3623 244.987 87.4313 245.152 86.4179 245.152ZM86.4179 243.461C87.1526 243.461 87.8303 243.334 88.4509 243.081C89.0843 242.828 89.6289 242.473 90.0849 242.017C90.5536 241.548 90.9146 241.004 91.1679 240.383C91.4339 239.762 91.5669 239.085 91.5669 238.35C91.5669 237.615 91.4339 236.938 91.1679 236.317C90.9146 235.696 90.5536 235.158 90.0849 234.702C89.6289 234.233 89.0843 233.872 88.4509 233.619C87.8303 233.366 87.1526 233.239 86.4179 233.239C85.6706 233.239 84.9803 233.366 84.3469 233.619C83.7263 233.872 83.1816 234.233 82.7129 234.702C82.2443 235.158 81.8769 235.696 81.6109 236.317C81.3576 236.938 81.2309 237.615 81.2309 238.35C81.2309 239.085 81.3576 239.762 81.6109 240.383C81.8769 241.004 82.2443 241.548 82.7129 242.017C83.1816 242.473 83.7263 242.828 84.3469 243.081C84.9803 243.334 85.6706 243.461 86.4179 243.461ZM98.8264 245V233.353H94.2664V231.7H105.267V233.353H100.707V245H98.8264ZM105.794 240.573V238.996H110.905V240.573H105.794ZM115.689 237.989H122.548V239.623H115.689V237.989ZM115.879 245H113.979V231.7H123.365V233.353H115.879V245ZM131.895 245.152C130.882 245.152 129.938 244.981 129.064 244.639C128.203 244.297 127.456 243.822 126.822 243.214C126.189 242.593 125.695 241.871 125.34 241.048C124.986 240.225 124.808 239.325 124.808 238.35C124.808 237.375 124.986 236.475 125.34 235.652C125.695 234.829 126.189 234.113 126.822 233.505C127.456 232.884 128.203 232.403 129.064 232.061C129.926 231.719 130.869 231.548 131.895 231.548C132.909 231.548 133.84 231.719 134.688 232.061C135.55 232.39 136.297 232.865 136.93 233.486C137.576 234.094 138.07 234.81 138.412 235.633C138.767 236.456 138.944 237.362 138.944 238.35C138.944 239.338 138.767 240.244 138.412 241.067C138.07 241.89 137.576 242.612 136.93 243.233C136.297 243.841 135.55 244.316 134.688 244.658C133.84 244.987 132.909 245.152 131.895 245.152ZM131.895 243.461C132.63 243.461 133.308 243.334 133.928 243.081C134.562 242.828 135.106 242.473 135.562 242.017C136.031 241.548 136.392 241.004 136.645 240.383C136.911 239.762 137.044 239.085 137.044 238.35C137.044 237.615 136.911 236.938 136.645 236.317C136.392 235.696 136.031 235.158 135.562 234.702C135.106 234.233 134.562 233.872 133.928 233.619C133.308 233.366 132.63 233.239 131.895 233.239C131.148 233.239 130.458 233.366 129.824 233.619C129.204 233.872 128.659 234.233 128.19 234.702C127.722 235.158 127.354 235.696 127.088 236.317C126.835 236.938 126.708 237.615 126.708 238.35C126.708 239.085 126.835 239.762 127.088 240.383C127.354 241.004 127.722 241.548 128.19 242.017C128.659 242.473 129.204 242.828 129.824 243.081C130.458 243.334 131.148 243.461 131.895 243.461ZM147.359 245.152C145.611 245.152 144.236 244.652 143.236 243.651C142.235 242.65 141.735 241.187 141.735 239.262V231.7H143.635V239.186C143.635 240.668 143.958 241.751 144.604 242.435C145.262 243.119 146.187 243.461 147.378 243.461C148.581 243.461 149.506 243.119 150.152 242.435C150.81 241.751 151.14 240.668 151.14 239.186V231.7H152.983V239.262C152.983 241.187 152.482 242.65 151.482 243.651C150.494 244.652 149.119 245.152 147.359 245.152ZM156.878 245V231.7H158.436L167.233 242.625H166.416V231.7H168.316V245H166.758L157.961 234.075H158.778V245H156.878ZM172.297 245V231.7H177.902C179.32 231.7 180.568 231.979 181.645 232.536C182.734 233.093 183.576 233.872 184.172 234.873C184.78 235.874 185.084 237.033 185.084 238.35C185.084 239.667 184.78 240.826 184.172 241.827C183.576 242.828 182.734 243.607 181.645 244.164C180.568 244.721 179.32 245 177.902 245H172.297ZM174.197 243.347H177.788C178.89 243.347 179.84 243.138 180.638 242.72C181.448 242.302 182.075 241.719 182.519 240.972C182.962 240.212 183.184 239.338 183.184 238.35C183.184 237.349 182.962 236.475 182.519 235.728C182.075 234.981 181.448 234.398 180.638 233.98C179.84 233.562 178.89 233.353 177.788 233.353H174.197V243.347Z"
                fill="black" />
            <g id="ERROR404">
                <path
                    d="M26.583 179.9H45.483V186.2H33.513V197.855H43.026V204.155H33.513V217.7H45.483V224H26.583V179.9ZM49.4697 179.9H59.7387C63.3087 179.9 65.9127 180.74 67.5507 182.42C69.1887 184.058 70.0077 186.599 70.0077 190.043V192.752C70.0077 197.33 68.4957 200.228 65.4717 201.446V201.572C67.1517 202.076 68.3277 203.105 68.9997 204.659C69.7137 206.213 70.0707 208.292 70.0707 210.896V218.645C70.0707 219.905 70.1127 220.934 70.1967 221.732C70.2807 222.488 70.4907 223.244 70.8267 224H63.7707C63.5187 223.286 63.3507 222.614 63.2667 221.984C63.1827 221.354 63.1407 220.22 63.1407 218.582V210.518C63.1407 208.502 62.8047 207.095 62.1327 206.297C61.5027 205.499 60.3897 205.1 58.7937 205.1H56.3997V224H49.4697V179.9ZM58.9197 198.8C60.3057 198.8 61.3347 198.443 62.0067 197.729C62.7207 197.015 63.0777 195.818 63.0777 194.138V190.736C63.0777 189.14 62.7837 187.985 62.1957 187.271C61.6497 186.557 60.7677 186.2 59.5497 186.2H56.3997V198.8H58.9197ZM74.8789 179.9H85.1479C88.7179 179.9 91.3219 180.74 92.9599 182.42C94.5979 184.058 95.4169 186.599 95.4169 190.043V192.752C95.4169 197.33 93.9049 200.228 90.8809 201.446V201.572C92.5609 202.076 93.7369 203.105 94.4089 204.659C95.1229 206.213 95.4799 208.292 95.4799 210.896V218.645C95.4799 219.905 95.5219 220.934 95.6059 221.732C95.6899 222.488 95.8999 223.244 96.2359 224H89.1799C88.9279 223.286 88.7599 222.614 88.6759 221.984C88.5919 221.354 88.5499 220.22 88.5499 218.582V210.518C88.5499 208.502 88.2139 207.095 87.5419 206.297C86.9119 205.499 85.7989 205.1 84.2029 205.1H81.8089V224H74.8789V179.9ZM84.3289 198.8C85.7149 198.8 86.7439 198.443 87.4159 197.729C88.1299 197.015 88.4869 195.818 88.4869 194.138V190.736C88.4869 189.14 88.1929 187.985 87.6049 187.271C87.0589 186.557 86.1769 186.2 84.9589 186.2H81.8089V198.8H84.3289ZM110.305 224.63C106.903 224.63 104.299 223.664 102.493 221.732C100.687 219.8 99.7841 217.07 99.7841 213.542V190.358C99.7841 186.83 100.687 184.1 102.493 182.168C104.299 180.236 106.903 179.27 110.305 179.27C113.707 179.27 116.311 180.236 118.117 182.168C119.923 184.1 120.826 186.83 120.826 190.358V213.542C120.826 217.07 119.923 219.8 118.117 221.732C116.311 223.664 113.707 224.63 110.305 224.63ZM110.305 218.33C112.699 218.33 113.896 216.881 113.896 213.983V189.917C113.896 187.019 112.699 185.57 110.305 185.57C107.911 185.57 106.714 187.019 106.714 189.917V213.983C106.714 216.881 107.911 218.33 110.305 218.33ZM125.513 179.9H135.782C139.352 179.9 141.956 180.74 143.594 182.42C145.232 184.058 146.051 186.599 146.051 190.043V192.752C146.051 197.33 144.539 200.228 141.515 201.446V201.572C143.195 202.076 144.371 203.105 145.043 204.659C145.757 206.213 146.114 208.292 146.114 210.896V218.645C146.114 219.905 146.156 220.934 146.24 221.732C146.324 222.488 146.534 223.244 146.87 224H139.814C139.562 223.286 139.394 222.614 139.31 221.984C139.226 221.354 139.184 220.22 139.184 218.582V210.518C139.184 208.502 138.848 207.095 138.176 206.297C137.546 205.499 136.433 205.1 134.837 205.1H132.443V224H125.513V179.9ZM134.963 198.8C136.349 198.8 137.378 198.443 138.05 197.729C138.764 197.015 139.121 195.818 139.121 194.138V190.736C139.121 189.14 138.827 187.985 138.239 187.271C137.693 186.557 136.811 186.2 135.593 186.2H132.443V198.8H134.963Z"
                    fill="#FF540A" />
                <path
                    d="M162.514 215.999H149.284V209.699L161.884 179.9H169.444V209.699H172.72V215.999H169.444V224H162.514V215.999ZM162.514 209.699V192.5H162.388L155.584 209.699H162.514ZM186.163 224.63C182.761 224.63 180.157 223.664 178.351 221.732C176.545 219.8 175.642 217.07 175.642 213.542V190.358C175.642 186.83 176.545 184.1 178.351 182.168C180.157 180.236 182.761 179.27 186.163 179.27C189.565 179.27 192.169 180.236 193.975 182.168C195.781 184.1 196.684 186.83 196.684 190.358V213.542C196.684 217.07 195.781 219.8 193.975 221.732C192.169 223.664 189.565 224.63 186.163 224.63ZM186.163 218.33C188.557 218.33 189.754 216.881 189.754 213.983V189.917C189.754 187.019 188.557 185.57 186.163 185.57C183.769 185.57 182.572 187.019 182.572 189.917V213.983C182.572 216.881 183.769 218.33 186.163 218.33ZM212.963 215.999H199.733V209.699L212.333 179.9H219.893V209.699H223.169V215.999H219.893V224H212.963V215.999ZM212.963 209.699V192.5H212.837L206.033 209.699H212.963Z"
                    fill="black" />
            </g>
        </g>
        <g id="ICON">
            <path id="Vector"
                d="M172.211 163.66H78.5259C68.2155 163.66 59.6897 154.63 59.6897 143.71V44.59C59.6897 33.67 68.2155 24.64 78.5259 24.64H172.112C182.422 24.64 190.948 33.565 190.948 44.59V143.71C191.047 154.735 182.522 163.66 172.211 163.66Z"
                stroke="black" stroke-width="10" stroke-miterlimit="10" />
            <path id="Vector_2"
                d="M29.1552 101.29C26.2802 101.29 24 98.77 24 95.83V62.335C24 59.29 26.3793 56.875 29.1552 56.875C32.0302 56.875 34.3103 59.395 34.3103 62.335V95.83C34.3103 98.875 32.0302 101.29 29.1552 101.29Z"
                fill="black" />
            <path id="Vector_3"
                d="M221.582 101.29C218.707 101.29 216.427 98.77 216.427 95.83V62.335C216.427 59.29 218.806 56.875 221.582 56.875C224.457 56.875 226.737 59.395 226.737 62.335V95.83C226.737 98.875 224.457 101.29 221.582 101.29Z"
                fill="black" />
            <path id="Vector_4"
                d="M207.108 100.87V27.685C207.108 16.345 198.285 7 187.578 7H63.1595C52.4526 7 43.6293 16.345 43.6293 27.685V100.87"
                stroke="black" stroke-width="10" stroke-miterlimit="10" stroke-linecap="round" />
            <g id="Group 1">
                <circle id="Ellipse 1" cx="125.5" cy="94.5" r="42.5" stroke="#FF540A" stroke-width="10" />
                <path id="Line 6" d="M96.9998 122.494L153.494 66" stroke="#FF540A" stroke-width="10"
                    stroke-linecap="round" />
            </g>
        </g>
    </g>
</svg>