<svg width="250" height="250" viewBox="0 0 250 250" fill="none" xmlns="http://www.w3.org/2000/svg">
    <g id="Error-500">
        <g id="TEXT">
            <path id="INTERNAL-SERVER-ERROR"
                d="M31.4876 235V225.2H32.8876V235H31.4876ZM35.8216 235V225.2H36.9696L43.4516 233.25H42.8496V225.2H44.2496V235H43.1016L36.6196 226.95H37.2216V235H35.8216ZM49.1289 235V226.418H45.7689V225.2H53.8749V226.418H50.5149V235H49.1289ZM56.6737 229.428H61.7137V230.618H56.6737V229.428ZM56.7997 233.782H62.5117V235H55.3997V225.2H62.3157V226.418H56.7997V233.782ZM64.7786 235V225.2H68.6006C69.4593 225.2 70.1919 225.335 70.7986 225.606C71.4053 225.877 71.8719 226.269 72.1986 226.782C72.5253 227.295 72.6886 227.907 72.6886 228.616C72.6886 229.325 72.5253 229.937 72.1986 230.45C71.8719 230.954 71.4053 231.341 70.7986 231.612C70.1919 231.883 69.4593 232.018 68.6006 232.018H65.5486L66.1786 231.374V235H64.7786ZM71.3306 235L68.8386 231.444H70.3366L72.8566 235H71.3306ZM66.1786 231.514L65.5486 230.828H68.5586C69.4546 230.828 70.1313 230.637 70.5886 230.254C71.0553 229.862 71.2886 229.316 71.2886 228.616C71.2886 227.916 71.0553 227.375 70.5886 226.992C70.1313 226.609 69.4546 226.418 68.5586 226.418H65.5486L66.1786 225.718V231.514ZM74.9505 235V225.2H76.0985L82.5805 233.25H81.9785V225.2H83.3785V235H82.2305L75.7485 226.95H76.3505V235H74.9505ZM84.8278 235L89.2658 225.2H90.6518L95.1038 235H93.6338L89.6718 225.984H90.2318L86.2698 235H84.8278ZM86.7178 232.55L87.0958 231.43H92.6118L93.0178 232.55H86.7178ZM96.5657 235V225.2H97.9657V233.782H103.272V235H96.5657ZM104.083 231.738V230.576H107.849V231.738H104.083ZM112.738 235.112C111.991 235.112 111.277 235 110.596 234.776C109.915 234.543 109.378 234.244 108.986 233.88L109.504 232.788C109.877 233.115 110.353 233.385 110.932 233.6C111.511 233.815 112.113 233.922 112.738 233.922C113.307 233.922 113.769 233.857 114.124 233.726C114.479 233.595 114.74 233.418 114.908 233.194C115.076 232.961 115.16 232.699 115.16 232.41C115.16 232.074 115.048 231.803 114.824 231.598C114.609 231.393 114.325 231.229 113.97 231.108C113.625 230.977 113.242 230.865 112.822 230.772C112.402 230.679 111.977 230.571 111.548 230.45C111.128 230.319 110.741 230.156 110.386 229.96C110.041 229.764 109.761 229.503 109.546 229.176C109.331 228.84 109.224 228.411 109.224 227.888C109.224 227.384 109.355 226.922 109.616 226.502C109.887 226.073 110.297 225.732 110.848 225.48C111.408 225.219 112.117 225.088 112.976 225.088C113.545 225.088 114.11 225.163 114.67 225.312C115.23 225.461 115.715 225.676 116.126 225.956L115.664 227.076C115.244 226.796 114.801 226.595 114.334 226.474C113.867 226.343 113.415 226.278 112.976 226.278C112.425 226.278 111.973 226.348 111.618 226.488C111.263 226.628 111.002 226.815 110.834 227.048C110.675 227.281 110.596 227.543 110.596 227.832C110.596 228.177 110.703 228.453 110.918 228.658C111.142 228.863 111.427 229.027 111.772 229.148C112.127 229.269 112.514 229.381 112.934 229.484C113.354 229.577 113.774 229.685 114.194 229.806C114.623 229.927 115.011 230.086 115.356 230.282C115.711 230.478 115.995 230.739 116.21 231.066C116.425 231.393 116.532 231.813 116.532 232.326C116.532 232.821 116.397 233.283 116.126 233.712C115.855 234.132 115.435 234.473 114.866 234.734C114.306 234.986 113.597 235.112 112.738 235.112ZM119.851 229.428H124.891V230.618H119.851V229.428ZM119.977 233.782H125.689V235H118.577V225.2H125.493V226.418H119.977V233.782ZM127.956 235V225.2H131.778C132.637 225.2 133.37 225.335 133.976 225.606C134.583 225.877 135.05 226.269 135.376 226.782C135.703 227.295 135.866 227.907 135.866 228.616C135.866 229.325 135.703 229.937 135.376 230.45C135.05 230.954 134.583 231.341 133.976 231.612C133.37 231.883 132.637 232.018 131.778 232.018H128.726L129.356 231.374V235H127.956ZM134.508 235L132.016 231.444H133.514L136.034 235H134.508ZM129.356 231.514L128.726 230.828H131.736C132.632 230.828 133.309 230.637 133.766 230.254C134.233 229.862 134.466 229.316 134.466 228.616C134.466 227.916 134.233 227.375 133.766 226.992C133.309 226.609 132.632 226.418 131.736 226.418H128.726L129.356 225.718V231.514ZM140.956 235L136.644 225.2H138.156L142.118 234.244H141.25L145.24 225.2H146.64L142.342 235H140.956ZM149.164 229.428H154.204V230.618H149.164V229.428ZM149.29 233.782H155.002V235H147.89V225.2H154.806V226.418H149.29V233.782ZM157.269 235V225.2H161.091C161.949 225.2 162.682 225.335 163.289 225.606C163.895 225.877 164.362 226.269 164.689 226.782C165.015 227.295 165.179 227.907 165.179 228.616C165.179 229.325 165.015 229.937 164.689 230.45C164.362 230.954 163.895 231.341 163.289 231.612C162.682 231.883 161.949 232.018 161.091 232.018H158.039L158.669 231.374V235H157.269ZM163.821 235L161.329 231.444H162.827L165.347 235H163.821ZM158.669 231.514L158.039 230.828H161.049C161.945 230.828 162.621 230.637 163.079 230.254C163.545 229.862 163.779 229.316 163.779 228.616C163.779 227.916 163.545 227.375 163.079 226.992C162.621 226.609 161.945 226.418 161.049 226.418H158.039L158.669 225.718V231.514ZM166.769 231.738V230.576H170.535V231.738H166.769ZM174.074 229.428H179.114V230.618H174.074V229.428ZM174.2 233.782H179.912V235H172.8V225.2H179.716V226.418H174.2V233.782ZM182.179 235V225.2H186.001C186.86 225.2 187.592 225.335 188.199 225.606C188.806 225.877 189.272 226.269 189.599 226.782C189.926 227.295 190.089 227.907 190.089 228.616C190.089 229.325 189.926 229.937 189.599 230.45C189.272 230.954 188.806 231.341 188.199 231.612C187.592 231.883 186.86 232.018 186.001 232.018H182.949L183.579 231.374V235H182.179ZM188.731 235L186.239 231.444H187.737L190.257 235H188.731ZM183.579 231.514L182.949 230.828H185.959C186.855 230.828 187.532 230.637 187.989 230.254C188.456 229.862 188.689 229.316 188.689 228.616C188.689 227.916 188.456 227.375 187.989 226.992C187.532 226.609 186.855 226.418 185.959 226.418H182.949L183.579 225.718V231.514ZM192.351 235V225.2H196.173C197.032 225.2 197.764 225.335 198.371 225.606C198.978 225.877 199.444 226.269 199.771 226.782C200.098 227.295 200.261 227.907 200.261 228.616C200.261 229.325 200.098 229.937 199.771 230.45C199.444 230.954 198.978 231.341 198.371 231.612C197.764 231.883 197.032 232.018 196.173 232.018H193.121L193.751 231.374V235H192.351ZM198.903 235L196.411 231.444H197.909L200.429 235H198.903ZM193.751 231.514L193.121 230.828H196.131C197.027 230.828 197.704 230.637 198.161 230.254C198.628 229.862 198.861 229.316 198.861 228.616C198.861 227.916 198.628 227.375 198.161 226.992C197.704 226.609 197.027 226.418 196.131 226.418H193.121L193.751 225.718V231.514ZM206.947 235.112C206.2 235.112 205.505 234.986 204.861 234.734C204.226 234.482 203.675 234.132 203.209 233.684C202.742 233.227 202.378 232.695 202.117 232.088C201.855 231.481 201.725 230.819 201.725 230.1C201.725 229.381 201.855 228.719 202.117 228.112C202.378 227.505 202.742 226.978 203.209 226.53C203.675 226.073 204.226 225.718 204.861 225.466C205.495 225.214 206.191 225.088 206.947 225.088C207.693 225.088 208.379 225.214 209.005 225.466C209.639 225.709 210.19 226.059 210.657 226.516C211.133 226.964 211.497 227.491 211.749 228.098C212.01 228.705 212.141 229.372 212.141 230.1C212.141 230.828 212.01 231.495 211.749 232.102C211.497 232.709 211.133 233.241 210.657 233.698C210.19 234.146 209.639 234.496 209.005 234.748C208.379 234.991 207.693 235.112 206.947 235.112ZM206.947 233.866C207.488 233.866 207.987 233.773 208.445 233.586C208.911 233.399 209.313 233.138 209.649 232.802C209.994 232.457 210.26 232.055 210.447 231.598C210.643 231.141 210.741 230.641 210.741 230.1C210.741 229.559 210.643 229.059 210.447 228.602C210.26 228.145 209.994 227.748 209.649 227.412C209.313 227.067 208.911 226.801 208.445 226.614C207.987 226.427 207.488 226.334 206.947 226.334C206.396 226.334 205.887 226.427 205.421 226.614C204.963 226.801 204.562 227.067 204.217 227.412C203.871 227.748 203.601 228.145 203.405 228.602C203.218 229.059 203.125 229.559 203.125 230.1C203.125 230.641 203.218 231.141 203.405 231.598C203.601 232.055 203.871 232.457 204.217 232.802C204.562 233.138 204.963 233.399 205.421 233.586C205.887 233.773 206.396 233.866 206.947 233.866ZM214.281 235V225.2H218.103C218.961 225.2 219.694 225.335 220.301 225.606C220.907 225.877 221.374 226.269 221.701 226.782C222.027 227.295 222.191 227.907 222.191 228.616C222.191 229.325 222.027 229.937 221.701 230.45C221.374 230.954 220.907 231.341 220.301 231.612C219.694 231.883 218.961 232.018 218.103 232.018H215.051L215.681 231.374V235H214.281ZM220.833 235L218.341 231.444H219.839L222.359 235H220.833ZM215.681 231.514L215.051 230.828H218.061C218.957 230.828 219.633 230.637 220.091 230.254C220.557 229.862 220.791 229.316 220.791 228.616C220.791 227.916 220.557 227.375 220.091 226.992C219.633 226.609 218.957 226.418 218.061 226.418H215.051L215.681 225.718V231.514Z"
                fill="black" />
            <g id="ERROR500">
                <path
                    d="M28.583 173.9H47.483V180.2H35.513V191.855H45.026V198.155H35.513V211.7H47.483V218H28.583V173.9ZM51.4697 173.9H61.7387C65.3087 173.9 67.9127 174.74 69.5507 176.42C71.1887 178.058 72.0077 180.599 72.0077 184.043V186.752C72.0077 191.33 70.4957 194.228 67.4717 195.446V195.572C69.1517 196.076 70.3277 197.105 70.9997 198.659C71.7137 200.213 72.0707 202.292 72.0707 204.896V212.645C72.0707 213.905 72.1127 214.934 72.1967 215.732C72.2807 216.488 72.4907 217.244 72.8267 218H65.7707C65.5187 217.286 65.3507 216.614 65.2667 215.984C65.1827 215.354 65.1407 214.22 65.1407 212.582V204.518C65.1407 202.502 64.8047 201.095 64.1327 200.297C63.5027 199.499 62.3897 199.1 60.7937 199.1H58.3997V218H51.4697V173.9ZM60.9197 192.8C62.3057 192.8 63.3347 192.443 64.0067 191.729C64.7207 191.015 65.0777 189.818 65.0777 188.138V184.736C65.0777 183.14 64.7837 181.985 64.1957 181.271C63.6497 180.557 62.7677 180.2 61.5497 180.2H58.3997V192.8H60.9197ZM76.8789 173.9H87.1479C90.7179 173.9 93.3219 174.74 94.9599 176.42C96.5979 178.058 97.4169 180.599 97.4169 184.043V186.752C97.4169 191.33 95.9049 194.228 92.8809 195.446V195.572C94.5609 196.076 95.7369 197.105 96.4089 198.659C97.1229 200.213 97.4799 202.292 97.4799 204.896V212.645C97.4799 213.905 97.5219 214.934 97.6059 215.732C97.6899 216.488 97.8999 217.244 98.2359 218H91.1799C90.9279 217.286 90.7599 216.614 90.6759 215.984C90.5919 215.354 90.5499 214.22 90.5499 212.582V204.518C90.5499 202.502 90.2139 201.095 89.5419 200.297C88.9119 199.499 87.7989 199.1 86.2029 199.1H83.8089V218H76.8789V173.9ZM86.3289 192.8C87.7149 192.8 88.7439 192.443 89.4159 191.729C90.1299 191.015 90.4869 189.818 90.4869 188.138V184.736C90.4869 183.14 90.1929 181.985 89.6049 181.271C89.0589 180.557 88.1769 180.2 86.9589 180.2H83.8089V192.8H86.3289ZM112.305 218.63C108.903 218.63 106.299 217.664 104.493 215.732C102.687 213.8 101.784 211.07 101.784 207.542V184.358C101.784 180.83 102.687 178.1 104.493 176.168C106.299 174.236 108.903 173.27 112.305 173.27C115.707 173.27 118.311 174.236 120.117 176.168C121.923 178.1 122.826 180.83 122.826 184.358V207.542C122.826 211.07 121.923 213.8 120.117 215.732C118.311 217.664 115.707 218.63 112.305 218.63ZM112.305 212.33C114.699 212.33 115.896 210.881 115.896 207.983V183.917C115.896 181.019 114.699 179.57 112.305 179.57C109.911 179.57 108.714 181.019 108.714 183.917V207.983C108.714 210.881 109.911 212.33 112.305 212.33ZM127.513 173.9H137.782C141.352 173.9 143.956 174.74 145.594 176.42C147.232 178.058 148.051 180.599 148.051 184.043V186.752C148.051 191.33 146.539 194.228 143.515 195.446V195.572C145.195 196.076 146.371 197.105 147.043 198.659C147.757 200.213 148.114 202.292 148.114 204.896V212.645C148.114 213.905 148.156 214.934 148.24 215.732C148.324 216.488 148.534 217.244 148.87 218H141.814C141.562 217.286 141.394 216.614 141.31 215.984C141.226 215.354 141.184 214.22 141.184 212.582V204.518C141.184 202.502 140.848 201.095 140.176 200.297C139.546 199.499 138.433 199.1 136.837 199.1H134.443V218H127.513V173.9ZM136.963 192.8C138.349 192.8 139.378 192.443 140.05 191.729C140.764 191.015 141.121 189.818 141.121 188.138V184.736C141.121 183.14 140.827 181.985 140.239 181.271C139.693 180.557 138.811 180.2 137.593 180.2H134.443V192.8H136.963Z"
                    fill="#FF540A" />
                <path
                    d="M163.065 218.63C159.705 218.63 157.143 217.685 155.379 215.795C153.615 213.863 152.733 211.112 152.733 207.542V204.077H159.285V208.046C159.285 210.902 160.482 212.33 162.876 212.33C165.27 212.33 166.467 210.902 166.467 208.046V198.155C166.467 195.257 165.27 193.808 162.876 193.808C160.482 193.808 159.285 195.257 159.285 198.155V198.533H152.733L153.993 173.9H172.263V180.2H160.167L159.6 190.721H159.726C161.028 188.579 163.023 187.508 165.711 187.508C168.231 187.508 170.142 188.369 171.444 190.091C172.746 191.813 173.397 194.312 173.397 197.588V207.542C173.397 211.112 172.515 213.863 170.751 215.795C168.987 217.685 166.425 218.63 163.065 218.63ZM188.163 218.63C184.761 218.63 182.157 217.664 180.351 215.732C178.545 213.8 177.642 211.07 177.642 207.542V184.358C177.642 180.83 178.545 178.1 180.351 176.168C182.157 174.236 184.761 173.27 188.163 173.27C191.565 173.27 194.169 174.236 195.975 176.168C197.781 178.1 198.684 180.83 198.684 184.358V207.542C198.684 211.07 197.781 213.8 195.975 215.732C194.169 217.664 191.565 218.63 188.163 218.63ZM188.163 212.33C190.557 212.33 191.754 210.881 191.754 207.983V183.917C191.754 181.019 190.557 179.57 188.163 179.57C185.769 179.57 184.572 181.019 184.572 183.917V207.983C184.572 210.881 185.769 212.33 188.163 212.33ZM213.388 218.63C209.986 218.63 207.382 217.664 205.576 215.732C203.77 213.8 202.867 211.07 202.867 207.542V184.358C202.867 180.83 203.77 178.1 205.576 176.168C207.382 174.236 209.986 173.27 213.388 173.27C216.79 173.27 219.394 174.236 221.2 176.168C223.006 178.1 223.909 180.83 223.909 184.358V207.542C223.909 211.07 223.006 213.8 221.2 215.732C219.394 217.664 216.79 218.63 213.388 218.63ZM213.388 212.33C215.782 212.33 216.979 210.881 216.979 207.983V183.917C216.979 181.019 215.782 179.57 213.388 179.57C210.994 179.57 209.797 181.019 209.797 183.917V207.983C209.797 210.881 210.994 212.33 213.388 212.33Z"
                    fill="black" />
            </g>
        </g>
        <g id="ICON">
            <path id="Vector"
                d="M172.211 163.66H78.5259C68.2155 163.66 59.6897 154.63 59.6897 143.71V44.59C59.6897 33.67 68.2155 24.64 78.5259 24.64H172.112C182.422 24.64 190.948 33.565 190.948 44.59V143.71C191.047 154.735 182.522 163.66 172.211 163.66Z"
                stroke="black" stroke-width="10" stroke-miterlimit="10" />
            <path id="Vector_2"
                d="M29.1552 101.29C26.2802 101.29 24 98.77 24 95.83V62.335C24 59.29 26.3793 56.875 29.1552 56.875C32.0302 56.875 34.3103 59.395 34.3103 62.335V95.83C34.3103 98.875 32.0302 101.29 29.1552 101.29Z"
                fill="black" />
            <path id="Vector_3"
                d="M221.582 101.29C218.707 101.29 216.427 98.77 216.427 95.83V62.335C216.427 59.29 218.806 56.875 221.582 56.875C224.457 56.875 226.737 59.395 226.737 62.335V95.83C226.737 98.875 224.457 101.29 221.582 101.29Z"
                fill="black" />
            <path id="Vector_4"
                d="M207.108 100.87V27.685C207.108 16.345 198.285 7 187.578 7H63.1595C52.4526 7 43.6293 16.345 43.6293 27.685V100.87"
                stroke="black" stroke-width="10" stroke-miterlimit="10" stroke-linecap="round" />
            <g id="Group 1">
                <circle id="Ellipse 1" cx="125.5" cy="94.5" r="42.5" stroke="#FF540A" stroke-width="10" />
                <path id="Line 6" d="M96.9998 122.494L153.494 66" stroke="#FF540A" stroke-width="10"
                    stroke-linecap="round" />
            </g>
        </g>
    </g>
</svg>